<svg width="375" height="667" viewBox="0 0 375 667" fill="none" xmlns="http://www.w3.org/2000/svg">
<g clip-path="url(#clip0_1_140)">
<rect width="375" height="667" fill="#C0E8B9"/>
<path d="M108.072 281.64C104.787 281.64 101.821 280.936 99.176 279.528C96.5733 278.12 94.504 276.051 92.968 273.32C91.4747 270.547 90.728 267.112 90.728 263.016C90.7707 258.877 91.5173 255.421 92.968 252.648C94.4613 249.875 96.5307 247.805 99.176 246.44C101.821 245.032 104.872 244.328 108.328 244.328C112.509 244.328 116.008 245.459 118.824 247.72C121.683 249.981 123.496 253.224 124.264 257.448H121.256C120.616 254.035 119.123 251.453 116.776 249.704C114.429 247.912 111.613 247.016 108.328 247.016C103.805 247.016 100.221 248.381 97.576 251.112C94.9733 253.843 93.672 257.768 93.672 262.888C93.672 268.179 94.952 272.189 97.512 274.92C100.115 277.608 103.635 278.952 108.072 278.952C111.699 278.952 114.685 278.056 117.032 276.264C119.379 274.472 120.851 271.912 121.448 268.584H124.584C123.773 272.723 121.96 275.944 119.144 278.248C116.328 280.509 112.637 281.64 108.072 281.64ZM140.89 281.64C136.836 281.64 133.786 280.403 131.738 277.928C129.732 275.411 128.73 272.232 128.73 268.392C128.73 264.467 129.754 261.267 131.802 258.792C133.85 256.275 136.879 255.016 140.89 255.016C144.815 255.016 147.802 256.253 149.85 258.728C151.94 261.16 152.986 264.381 152.986 268.392C152.986 270.909 152.538 273.171 151.642 275.176C150.788 277.139 149.466 278.717 147.674 279.912C145.924 281.064 143.663 281.64 140.89 281.64ZM140.89 279.016C143.279 279.016 145.135 278.483 146.458 277.416C147.78 276.349 148.698 275.005 149.21 273.384C149.764 271.72 150.042 270.035 150.042 268.328C150.042 266.579 149.764 264.893 149.21 263.272C148.698 261.608 147.78 260.243 146.458 259.176C145.135 258.067 143.279 257.512 140.89 257.512C138.5 257.512 136.644 258.067 135.322 259.176C133.999 260.243 133.06 261.608 132.506 263.272C131.951 264.893 131.674 266.579 131.674 268.328C131.674 270.035 131.951 271.72 132.506 273.384C133.06 275.005 133.999 276.349 135.322 277.416C136.644 278.483 138.5 279.016 140.89 279.016ZM159.142 281V244.968H162.086V281H159.142ZM168.892 281V244.968H171.836V281H168.892ZM186.962 281.576C184.573 281.576 182.589 280.979 181.01 279.784C179.431 278.589 178.258 276.989 177.49 274.984C176.722 272.936 176.338 270.675 176.338 268.2C176.338 265.64 176.722 263.357 177.49 261.352C178.301 259.304 179.495 257.704 181.074 256.552C182.653 255.357 184.615 254.76 186.962 254.76C189.479 254.76 191.485 255.379 192.978 256.616C194.471 257.811 195.538 259.197 196.178 260.776H196.306V255.016H199.25V281H196.818L196.306 275.624H196.178C195.495 277.203 194.407 278.589 192.914 279.784C191.421 280.979 189.437 281.576 186.962 281.576ZM188.05 278.888C190.781 278.888 192.829 277.949 194.194 276.072C195.559 274.195 196.242 271.592 196.242 268.264C196.242 264.723 195.517 262.056 194.066 260.264C192.658 258.472 190.653 257.576 188.05 257.576C185.021 257.576 182.802 258.6 181.394 260.648C179.986 262.653 179.282 265.171 179.282 268.2C179.282 271.357 180.007 273.939 181.458 275.944C182.909 277.907 185.106 278.888 188.05 278.888ZM210.135 291.24V288.488H223.832V274.664H223.704C223.618 274.963 223.362 275.475 222.936 276.2C222.552 276.925 221.976 277.715 221.208 278.568C220.44 279.421 219.437 280.147 218.2 280.744C217.005 281.341 215.554 281.64 213.848 281.64C211.373 281.64 209.261 281.043 207.512 279.848C205.805 278.653 204.504 277.053 203.608 275.048C202.712 273.043 202.264 270.803 202.264 268.328C202.264 265.811 202.712 263.549 203.608 261.544C204.546 259.539 205.869 257.96 207.576 256.808C209.325 255.613 211.437 255.016 213.912 255.016C215.661 255.016 217.133 255.336 218.328 255.976C219.565 256.573 220.546 257.299 221.272 258.152C222.04 258.963 222.594 259.752 222.936 260.52C223.32 261.245 223.554 261.757 223.64 262.056H223.768L223.832 255.016H226.84V286.568C226.84 287.933 226.584 289.043 226.072 289.896C225.602 290.792 224.6 291.24 223.064 291.24H210.135ZM214.232 278.888C216.834 278.888 219.053 277.971 220.888 276.136C222.765 274.301 223.704 271.699 223.704 268.328C223.704 265.043 222.829 262.483 221.08 260.648C219.33 258.771 217.176 257.832 214.616 257.832C212.482 257.832 210.712 258.344 209.304 259.368C207.896 260.349 206.85 261.651 206.168 263.272C205.485 264.851 205.144 266.536 205.144 268.328C205.144 270.12 205.442 271.827 206.04 273.448C206.68 275.069 207.661 276.392 208.984 277.416C210.349 278.397 212.098 278.888 214.232 278.888ZM235.373 252.264C234.648 252.307 234.157 252.115 233.901 251.688C233.645 251.261 233.517 250.749 233.517 250.152C233.517 249.597 233.645 249.128 233.901 248.744C234.157 248.36 234.648 248.168 235.373 248.168C236.056 248.168 236.525 248.36 236.781 248.744C237.037 249.128 237.165 249.597 237.165 250.152C237.165 250.792 237.037 251.304 236.781 251.688C236.525 252.072 236.056 252.264 235.373 252.264ZM233.837 281V255.016H236.717V281H233.837ZM245.43 281.192V257.384H241.206V255.016H245.43V248.552C245.43 247.528 245.622 246.632 246.006 245.864C246.432 245.096 247.307 244.712 248.63 244.712H256.758V247.144H248.438V255.016H256.246V257.384H248.438V281.192H245.43ZM259.181 292.392V289.96H262.51C263.363 289.96 264.046 289.704 264.558 289.192C265.07 288.68 265.731 287.592 266.542 285.928L269.742 278.952L259.566 255.016H262.638L271.278 275.752L280.43 255.016H283.566L269.102 286.44C268.334 288.147 267.651 289.427 267.054 290.28C266.456 291.133 265.816 291.688 265.134 291.944C264.451 292.243 263.619 292.392 262.638 292.392H259.181Z" fill="black"/>
<path d="M43.5 322.04H46.36V322.24H46.26C46.1533 322.24 46.06 322.28 45.98 322.36C45.9 322.427 45.8333 322.513 45.78 322.62C45.7267 322.727 45.68 322.84 45.64 322.96C45.6133 323.08 45.6 323.187 45.6 323.28V328.64C45.36 328.733 45.0867 328.813 44.78 328.88C44.4733 328.947 44.1533 329 43.82 329.04C43.4867 329.093 43.1467 329.133 42.8 329.16C42.4533 329.187 42.1333 329.2 41.84 329.2C40.64 329.2 39.5933 329 38.7 328.6C37.8067 328.2 37.0667 327.68 36.48 327.04C35.8933 326.387 35.4533 325.653 35.16 324.84C34.88 324.027 34.74 323.207 34.74 322.38C34.74 321.553 34.88 320.733 35.16 319.92C35.4533 319.107 35.8933 318.38 36.48 317.74C37.08 317.1 37.8267 316.587 38.72 316.2C39.6267 315.8 40.7 315.6 41.94 315.6C42.4067 315.6 42.84 315.64 43.24 315.72C43.64 315.8 43.9933 315.873 44.3 315.94C44.4733 315.98 44.62 316.02 44.74 316.06C44.8733 316.087 44.9867 316.1 45.08 316.1H45.26V318.22H45.06C44.98 317.807 44.82 317.473 44.58 317.22C44.3533 316.967 44.0867 316.773 43.78 316.64C43.4733 316.507 43.1467 316.42 42.8 316.38C42.4667 316.327 42.1533 316.3 41.86 316.3C40.86 316.3 39.9933 316.48 39.26 316.84C38.5267 317.187 37.9267 317.64 37.46 318.2C36.9933 318.76 36.6467 319.393 36.42 320.1C36.1933 320.793 36.08 321.487 36.08 322.18C36.08 322.953 36.2267 323.72 36.52 324.48C36.8133 325.227 37.2267 325.9 37.76 326.5C38.2933 327.087 38.9333 327.567 39.68 327.94C40.44 328.3 41.28 328.48 42.2 328.48C42.4533 328.48 42.7667 328.453 43.14 328.4C43.5133 328.333 43.8867 328.193 44.26 327.98V323.28C44.26 323.187 44.2467 323.08 44.22 322.96C44.1933 322.84 44.1467 322.727 44.08 322.62C44.0267 322.513 43.96 322.427 43.88 322.36C43.8 322.28 43.7067 322.24 43.6 322.24H43.5V322.04ZM49.1445 324.96C49.1979 325.427 49.3112 325.873 49.4845 326.3C49.6579 326.713 49.8845 327.08 50.1645 327.4C50.4579 327.72 50.8112 327.98 51.2245 328.18C51.6379 328.367 52.1179 328.46 52.6645 328.46C52.9579 328.46 53.2645 328.42 53.5845 328.34C53.9179 328.247 54.2245 328.12 54.5045 327.96C54.7845 327.8 55.0312 327.607 55.2445 327.38C55.4712 327.14 55.6245 326.873 55.7045 326.58H55.8845V328.08C55.8045 328.08 55.7112 328.107 55.6045 328.16C55.5112 328.213 55.3979 328.28 55.2645 328.36C54.9979 328.52 54.6379 328.693 54.1845 328.88C53.7312 329.053 53.1312 329.14 52.3845 329.14C51.7845 329.14 51.2112 329.053 50.6645 328.88C50.1312 328.707 49.6579 328.44 49.2445 328.08C48.8312 327.72 48.4979 327.26 48.2445 326.7C48.0045 326.14 47.8845 325.473 47.8845 324.7C47.8845 324.207 47.9645 323.707 48.1245 323.2C48.2979 322.693 48.5512 322.24 48.8845 321.84C49.2312 321.427 49.6712 321.093 50.2045 320.84C50.7379 320.587 51.3779 320.46 52.1245 320.46C52.7912 320.46 53.3712 320.573 53.8645 320.8C54.3712 321.027 54.7845 321.34 55.1045 321.74C55.4379 322.14 55.6845 322.613 55.8445 323.16C56.0045 323.707 56.0845 324.307 56.0845 324.96H49.1445ZM52.0445 321.12C51.5779 321.12 51.1712 321.213 50.8245 321.4C50.4912 321.587 50.2045 321.827 49.9645 322.12C49.7245 322.413 49.5379 322.747 49.4045 323.12C49.2712 323.493 49.1845 323.867 49.1445 324.24H54.8445C54.8312 323.853 54.7579 323.473 54.6245 323.1C54.5045 322.727 54.3312 322.393 54.1045 322.1C53.8779 321.807 53.5912 321.573 53.2445 321.4C52.8979 321.213 52.4979 321.12 52.0445 321.12ZM65.7916 327.7C65.7916 327.807 65.8049 327.927 65.8316 328.06C65.8582 328.18 65.8982 328.293 65.9516 328.4C66.0182 328.507 66.0849 328.6 66.1516 328.68C66.2316 328.76 66.3249 328.8 66.4316 328.8V329H63.8516V328.8C63.9449 328.8 64.0316 328.76 64.1116 328.68C64.1916 328.6 64.2582 328.507 64.3116 328.4C64.3782 328.293 64.4249 328.18 64.4516 328.06C64.4782 327.927 64.4916 327.807 64.4916 327.7V323.98C64.4916 323.5 64.4249 323.08 64.2916 322.72C64.1582 322.36 63.9782 322.06 63.7516 321.82C63.5249 321.58 63.2649 321.407 62.9716 321.3C62.6916 321.18 62.4049 321.12 62.1116 321.12C61.8182 321.12 61.5249 321.18 61.2316 321.3C60.9516 321.42 60.6982 321.58 60.4716 321.78C60.2582 321.967 60.0782 322.193 59.9316 322.46C59.7982 322.713 59.7316 322.98 59.7316 323.26V327.7C59.7316 327.807 59.7449 327.927 59.7716 328.06C59.7982 328.18 59.8382 328.293 59.8916 328.4C59.9582 328.507 60.0249 328.6 60.0916 328.68C60.1716 328.76 60.2649 328.8 60.3716 328.8V329H57.7716V328.8C57.8649 328.8 57.9516 328.76 58.0316 328.68C58.1116 328.6 58.1782 328.507 58.2316 328.4C58.2982 328.293 58.3449 328.18 58.3716 328.06C58.3982 327.927 58.4116 327.807 58.4116 327.7V322.18C58.4116 321.953 58.3782 321.74 58.3116 321.54C58.2449 321.327 58.0516 321.213 57.7316 321.2V321.02L59.7316 320.38V321.48C59.8249 321.373 59.9449 321.26 60.0916 321.14C60.2382 321.007 60.4116 320.887 60.6116 320.78C60.8249 320.66 61.0649 320.567 61.3316 320.5C61.6116 320.42 61.9382 320.38 62.3116 320.38C62.9382 320.38 63.4716 320.487 63.9116 320.7C64.3516 320.913 64.7116 321.193 64.9916 321.54C65.2716 321.873 65.4716 322.247 65.5916 322.66C65.7249 323.06 65.7916 323.453 65.7916 323.84V327.7ZM69.4961 324.96C69.5494 325.427 69.6628 325.873 69.8361 326.3C70.0094 326.713 70.2361 327.08 70.5161 327.4C70.8094 327.72 71.1628 327.98 71.5761 328.18C71.9894 328.367 72.4694 328.46 73.0161 328.46C73.3094 328.46 73.6161 328.42 73.9361 328.34C74.2694 328.247 74.5761 328.12 74.8561 327.96C75.1361 327.8 75.3828 327.607 75.5961 327.38C75.8228 327.14 75.9761 326.873 76.0561 326.58H76.2361V328.08C76.1561 328.08 76.0628 328.107 75.9561 328.16C75.8628 328.213 75.7494 328.28 75.6161 328.36C75.3494 328.52 74.9894 328.693 74.5361 328.88C74.0828 329.053 73.4828 329.14 72.7361 329.14C72.1361 329.14 71.5628 329.053 71.0161 328.88C70.4828 328.707 70.0094 328.44 69.5961 328.08C69.1828 327.72 68.8494 327.26 68.5961 326.7C68.3561 326.14 68.2361 325.473 68.2361 324.7C68.2361 324.207 68.3161 323.707 68.4761 323.2C68.6494 322.693 68.9028 322.24 69.2361 321.84C69.5828 321.427 70.0228 321.093 70.5561 320.84C71.0894 320.587 71.7294 320.46 72.4761 320.46C73.1428 320.46 73.7228 320.573 74.2161 320.8C74.7228 321.027 75.1361 321.34 75.4561 321.74C75.7894 322.14 76.0361 322.613 76.1961 323.16C76.3561 323.707 76.4361 324.307 76.4361 324.96H69.4961ZM72.3961 321.12C71.9294 321.12 71.5228 321.213 71.1761 321.4C70.8428 321.587 70.5561 321.827 70.3161 322.12C70.0761 322.413 69.8894 322.747 69.7561 323.12C69.6228 323.493 69.5361 323.867 69.4961 324.24H75.1961C75.1828 323.853 75.1094 323.473 74.9761 323.1C74.8561 322.727 74.6828 322.393 74.4561 322.1C74.2294 321.807 73.9428 321.573 73.5961 321.4C73.2494 321.213 72.8494 321.12 72.3961 321.12ZM82.9831 322.06C82.8231 321.793 82.6565 321.627 82.4831 321.56C82.3098 321.493 82.1098 321.46 81.8831 321.46C81.7365 321.46 81.5765 321.493 81.4031 321.56C81.2431 321.627 81.0831 321.713 80.9231 321.82C80.7631 321.927 80.6031 322.047 80.4431 322.18C80.2965 322.3 80.1698 322.413 80.0631 322.52V327.72C80.0631 327.827 80.0765 327.94 80.1031 328.06C80.1298 328.18 80.1698 328.3 80.2231 328.42C80.2898 328.527 80.3565 328.62 80.4231 328.7C80.5031 328.767 80.5965 328.8 80.7031 328.8V329H78.1031V328.8C78.1965 328.8 78.2831 328.767 78.3631 328.7C78.4431 328.62 78.5098 328.527 78.5631 328.42C78.6298 328.3 78.6765 328.18 78.7031 328.06C78.7298 327.94 78.7431 327.827 78.7431 327.72V322.14C78.7431 321.953 78.6831 321.767 78.5631 321.58C78.4431 321.393 78.2698 321.273 78.0431 321.22V321.06L80.0631 320.46V321.66C80.1831 321.513 80.3098 321.373 80.4431 321.24C80.5765 321.093 80.7231 320.967 80.8831 320.86C81.0565 320.74 81.2431 320.647 81.4431 320.58C81.6431 320.5 81.8765 320.46 82.1431 320.46C82.3298 320.46 82.5698 320.5 82.8631 320.58C83.1565 320.66 83.3965 320.747 83.5831 320.84L82.9831 322.06ZM90.1214 329V327.98L90.0214 328.08C89.6881 328.413 89.3014 328.673 88.8614 328.86C88.4347 329.047 87.9147 329.14 87.3014 329.14C86.8347 329.14 86.4347 329.087 86.1014 328.98C85.7681 328.873 85.4947 328.727 85.2814 328.54C85.0681 328.34 84.9081 328.113 84.8014 327.86C84.7081 327.607 84.6614 327.34 84.6614 327.06C84.6614 326.607 84.7814 326.207 85.0214 325.86C85.2747 325.513 85.6347 325.207 86.1014 324.94C86.5681 324.673 87.1347 324.433 87.8014 324.22C88.4814 323.993 89.2547 323.773 90.1214 323.56C90.0947 323.04 89.9881 322.62 89.8014 322.3C89.6147 321.98 89.3947 321.733 89.1414 321.56C88.8881 321.373 88.6214 321.253 88.3414 321.2C88.0614 321.133 87.8214 321.1 87.6214 321.1C87.2747 321.1 86.9681 321.153 86.7014 321.26C86.4481 321.367 86.2214 321.507 86.0214 321.68C85.8347 321.84 85.6747 322.02 85.5414 322.22C85.4081 322.407 85.3014 322.587 85.2214 322.76H85.0414V321.3C85.1481 321.287 85.2481 321.253 85.3414 321.2C85.4347 321.147 85.5481 321.093 85.6814 321.04C85.8814 320.96 86.1547 320.847 86.5014 320.7C86.8481 320.54 87.3347 320.46 87.9614 320.46C88.6947 320.46 89.2881 320.553 89.7414 320.74C90.1947 320.927 90.5414 321.173 90.7814 321.48C91.0347 321.787 91.2014 322.14 91.2814 322.54C91.3614 322.927 91.4014 323.327 91.4014 323.74V327.7C91.4014 327.967 91.4614 328.22 91.5814 328.46C91.7014 328.687 91.8614 328.8 92.0614 328.8V329H90.1214ZM90.1214 327.1V324.24L89.9214 324.28C89.6014 324.36 89.2081 324.467 88.7414 324.6C88.2881 324.733 87.8547 324.907 87.4414 325.12C87.0281 325.333 86.6747 325.587 86.3814 325.88C86.0881 326.173 85.9414 326.513 85.9414 326.9C85.9414 327.327 86.1147 327.68 86.4614 327.96C86.8081 328.24 87.2614 328.38 87.8214 328.38C88.2614 328.38 88.6481 328.287 88.9814 328.1C89.3147 327.9 89.6214 327.647 89.9014 327.34L90.1214 327.1ZM95.942 321.28V326.1C95.942 326.447 95.9487 326.76 95.962 327.04C95.9754 327.32 96.0087 327.553 96.062 327.74C96.1154 327.927 96.1954 328.073 96.302 328.18C96.4087 328.273 96.5554 328.32 96.742 328.32C97.022 328.32 97.282 328.187 97.522 327.92C97.7754 327.653 97.9354 327.333 98.002 326.96H98.182V328.42C98.062 328.42 97.962 328.46 97.882 328.54C97.7754 328.633 97.622 328.733 97.422 328.84C97.2354 328.947 96.9487 329 96.562 329C96.082 329 95.7087 328.907 95.442 328.72C95.1754 328.533 94.982 328.287 94.862 327.98C94.742 327.673 94.6687 327.333 94.642 326.96C94.6287 326.587 94.622 326.207 94.622 325.82V321.28H93.502V320.6H94.622V318.82C94.622 318.593 94.5887 318.387 94.522 318.2C94.4687 318 94.2754 317.893 93.942 317.88V317.68L95.942 317.04V320.6H98.182V321.28H95.942ZM100.785 324.96C100.838 325.427 100.952 325.873 101.125 326.3C101.298 326.713 101.525 327.08 101.805 327.4C102.098 327.72 102.452 327.98 102.865 328.18C103.278 328.367 103.758 328.46 104.305 328.46C104.598 328.46 104.905 328.42 105.225 328.34C105.558 328.247 105.865 328.12 106.145 327.96C106.425 327.8 106.672 327.607 106.885 327.38C107.112 327.14 107.265 326.873 107.345 326.58H107.525V328.08C107.445 328.08 107.352 328.107 107.245 328.16C107.152 328.213 107.038 328.28 106.905 328.36C106.638 328.52 106.278 328.693 105.825 328.88C105.372 329.053 104.772 329.14 104.025 329.14C103.425 329.14 102.852 329.053 102.305 328.88C101.772 328.707 101.298 328.44 100.885 328.08C100.472 327.72 100.138 327.26 99.8852 326.7C99.6452 326.14 99.5252 325.473 99.5252 324.7C99.5252 324.207 99.6052 323.707 99.7652 323.2C99.9385 322.693 100.192 322.24 100.525 321.84C100.872 321.427 101.312 321.093 101.845 320.84C102.378 320.587 103.018 320.46 103.765 320.46C104.432 320.46 105.012 320.573 105.505 320.8C106.012 321.027 106.425 321.34 106.745 321.74C107.078 322.14 107.325 322.613 107.485 323.16C107.645 323.707 107.725 324.307 107.725 324.96H100.785ZM103.685 321.12C103.218 321.12 102.812 321.213 102.465 321.4C102.132 321.587 101.845 321.827 101.605 322.12C101.365 322.413 101.178 322.747 101.045 323.12C100.912 323.493 100.825 323.867 100.785 324.24H106.485C106.472 323.853 106.398 323.473 106.265 323.1C106.145 322.727 105.972 322.393 105.745 322.1C105.518 321.807 105.232 321.573 104.885 321.4C104.538 321.213 104.138 321.12 103.685 321.12ZM117.788 331.86C117.601 332.42 117.361 332.8 117.068 333C116.788 333.2 116.494 333.3 116.188 333.3C115.988 333.3 115.808 333.273 115.648 333.22C115.501 333.167 115.368 333.1 115.248 333.02C115.141 332.953 115.054 332.887 114.988 332.82C114.921 332.753 114.881 332.7 114.868 332.66L115.528 331.04C115.594 331.28 115.661 331.46 115.728 331.58C115.794 331.713 115.888 331.833 116.008 331.94C116.128 332.047 116.274 332.1 116.448 332.1C116.768 332.1 117.021 331.867 117.208 331.4L118.188 328.94L114.968 321.66C114.901 321.5 114.788 321.32 114.628 321.12C114.481 320.907 114.274 320.8 114.008 320.8V320.6H116.648V320.8C116.594 320.8 116.528 320.847 116.448 320.94C116.368 321.033 116.327 321.153 116.327 321.3C116.327 321.42 116.354 321.527 116.408 321.62L118.868 327.28L121.228 321.5C121.268 321.407 121.288 321.32 121.288 321.24C121.288 321.107 121.241 321 121.148 320.92C121.068 320.84 120.981 320.8 120.888 320.8V320.6H122.828V320.8C122.614 320.8 122.428 320.893 122.268 321.08C122.121 321.253 122.001 321.453 121.908 321.68L117.788 331.86ZM128.26 329.14C127.593 329.14 126.993 329.033 126.46 328.82C125.927 328.593 125.467 328.293 125.08 327.92C124.707 327.533 124.413 327.08 124.2 326.56C124 326.04 123.9 325.473 123.9 324.86C123.9 324.207 124.013 323.613 124.24 323.08C124.467 322.533 124.78 322.067 125.18 321.68C125.58 321.293 126.053 320.993 126.6 320.78C127.147 320.567 127.74 320.46 128.38 320.46C129.02 320.46 129.607 320.567 130.14 320.78C130.673 320.98 131.133 321.267 131.52 321.64C131.907 322.013 132.207 322.46 132.42 322.98C132.633 323.487 132.74 324.047 132.74 324.66C132.74 325.233 132.64 325.793 132.44 326.34C132.253 326.873 131.967 327.347 131.58 327.76C131.207 328.173 130.74 328.507 130.18 328.76C129.633 329.013 128.993 329.14 128.26 329.14ZM128.14 321.12C127.66 321.147 127.233 321.267 126.86 321.48C126.5 321.68 126.193 321.947 125.94 322.28C125.7 322.6 125.513 322.967 125.38 323.38C125.26 323.793 125.2 324.213 125.2 324.64C125.2 325.133 125.273 325.613 125.42 326.08C125.58 326.533 125.8 326.94 126.08 327.3C126.373 327.66 126.72 327.947 127.12 328.16C127.52 328.373 127.967 328.48 128.46 328.48C128.953 328.48 129.387 328.373 129.76 328.16C130.147 327.947 130.467 327.673 130.72 327.34C130.973 326.993 131.16 326.607 131.28 326.18C131.413 325.753 131.48 325.327 131.48 324.9C131.48 324.46 131.413 324.02 131.28 323.58C131.147 323.127 130.94 322.72 130.66 322.36C130.38 321.987 130.027 321.687 129.6 321.46C129.187 321.233 128.7 321.12 128.14 321.12ZM142.449 327.7C142.449 327.793 142.462 327.907 142.489 328.04C142.516 328.16 142.549 328.28 142.589 328.4C142.642 328.507 142.709 328.6 142.789 328.68C142.869 328.76 142.962 328.8 143.069 328.8V329H141.129V327.9C140.929 328.193 140.636 328.48 140.249 328.76C139.862 329.04 139.362 329.18 138.749 329.18C137.976 329.18 137.362 329.047 136.909 328.78C136.456 328.513 136.109 328.173 135.869 327.76C135.629 327.347 135.476 326.9 135.409 326.42C135.342 325.927 135.309 325.467 135.309 325.04V322.18C135.309 322.06 135.302 321.947 135.289 321.84C135.289 321.72 135.262 321.613 135.209 321.52C135.169 321.427 135.102 321.353 135.009 321.3C134.916 321.233 134.782 321.2 134.609 321.2V321.02L136.629 320.38V325.48C136.629 326.493 136.849 327.24 137.289 327.72C137.729 328.2 138.269 328.44 138.909 328.44C139.256 328.44 139.562 328.367 139.829 328.22C140.109 328.06 140.342 327.873 140.529 327.66C140.729 327.447 140.876 327.227 140.969 327C141.076 326.773 141.129 326.587 141.129 326.44V322.18C141.129 322.06 141.122 321.947 141.109 321.84C141.109 321.72 141.082 321.613 141.029 321.52C140.989 321.427 140.922 321.353 140.829 321.3C140.736 321.233 140.602 321.2 140.429 321.2V321.02L142.449 320.38V327.7ZM149.897 322.06C149.737 321.793 149.571 321.627 149.397 321.56C149.224 321.493 149.024 321.46 148.797 321.46C148.651 321.46 148.491 321.493 148.317 321.56C148.157 321.627 147.997 321.713 147.837 321.82C147.677 321.927 147.517 322.047 147.357 322.18C147.211 322.3 147.084 322.413 146.977 322.52V327.72C146.977 327.827 146.991 327.94 147.017 328.06C147.044 328.18 147.084 328.3 147.137 328.42C147.204 328.527 147.271 328.62 147.337 328.7C147.417 328.767 147.511 328.8 147.617 328.8V329H145.017V328.8C145.111 328.8 145.197 328.767 145.277 328.7C145.357 328.62 145.424 328.527 145.477 328.42C145.544 328.3 145.591 328.18 145.617 328.06C145.644 327.94 145.657 327.827 145.657 327.72V322.14C145.657 321.953 145.597 321.767 145.477 321.58C145.357 321.393 145.184 321.273 144.957 321.22V321.06L146.977 320.46V321.66C147.097 321.513 147.224 321.373 147.357 321.24C147.491 321.093 147.637 320.967 147.797 320.86C147.971 320.74 148.157 320.647 148.357 320.58C148.557 320.5 148.791 320.46 149.057 320.46C149.244 320.46 149.484 320.5 149.777 320.58C150.071 320.66 150.311 320.747 150.497 320.84L149.897 322.06ZM164.871 327.7C164.871 327.793 164.884 327.907 164.911 328.04C164.937 328.16 164.971 328.28 165.011 328.4C165.064 328.507 165.131 328.6 165.211 328.68C165.291 328.76 165.384 328.8 165.491 328.8V329H163.551V327.9C163.351 328.193 163.057 328.48 162.671 328.76C162.284 329.04 161.784 329.18 161.171 329.18C160.397 329.18 159.784 329.047 159.331 328.78C158.877 328.513 158.531 328.173 158.291 327.76C158.051 327.347 157.897 326.9 157.831 326.42C157.764 325.927 157.731 325.467 157.731 325.04V322.18C157.731 322.06 157.724 321.947 157.711 321.84C157.711 321.72 157.684 321.613 157.631 321.52C157.591 321.427 157.524 321.353 157.431 321.3C157.337 321.233 157.204 321.2 157.031 321.2V321.02L159.051 320.38V325.48C159.051 326.493 159.271 327.24 159.711 327.72C160.151 328.2 160.691 328.44 161.331 328.44C161.677 328.44 161.984 328.367 162.251 328.22C162.531 328.06 162.764 327.873 162.951 327.66C163.151 327.447 163.297 327.227 163.391 327C163.497 326.773 163.551 326.587 163.551 326.44V322.18C163.551 322.06 163.544 321.947 163.531 321.84C163.531 321.72 163.504 321.613 163.451 321.52C163.411 321.427 163.344 321.353 163.251 321.3C163.157 321.233 163.024 321.2 162.851 321.2V321.02L164.871 320.38V327.7ZM175.479 327.7C175.479 327.807 175.492 327.927 175.519 328.06C175.546 328.18 175.586 328.293 175.639 328.4C175.706 328.507 175.772 328.6 175.839 328.68C175.919 328.76 176.012 328.8 176.119 328.8V329H173.539V328.8C173.632 328.8 173.719 328.76 173.799 328.68C173.879 328.6 173.946 328.507 173.999 328.4C174.066 328.293 174.112 328.18 174.139 328.06C174.166 327.927 174.179 327.807 174.179 327.7V323.98C174.179 323.5 174.112 323.08 173.979 322.72C173.846 322.36 173.666 322.06 173.439 321.82C173.212 321.58 172.952 321.407 172.659 321.3C172.379 321.18 172.092 321.12 171.799 321.12C171.506 321.12 171.212 321.18 170.919 321.3C170.639 321.42 170.386 321.58 170.159 321.78C169.946 321.967 169.766 322.193 169.619 322.46C169.486 322.713 169.419 322.98 169.419 323.26V327.7C169.419 327.807 169.432 327.927 169.459 328.06C169.486 328.18 169.526 328.293 169.579 328.4C169.646 328.507 169.712 328.6 169.779 328.68C169.859 328.76 169.952 328.8 170.059 328.8V329H167.459V328.8C167.552 328.8 167.639 328.76 167.719 328.68C167.799 328.6 167.866 328.507 167.919 328.4C167.986 328.293 168.032 328.18 168.059 328.06C168.086 327.927 168.099 327.807 168.099 327.7V322.18C168.099 321.953 168.066 321.74 167.999 321.54C167.932 321.327 167.739 321.213 167.419 321.2V321.02L169.419 320.38V321.48C169.512 321.373 169.632 321.26 169.779 321.14C169.926 321.007 170.099 320.887 170.299 320.78C170.512 320.66 170.752 320.567 171.019 320.5C171.299 320.42 171.626 320.38 171.999 320.38C172.626 320.38 173.159 320.487 173.599 320.7C174.039 320.913 174.399 321.193 174.679 321.54C174.959 321.873 175.159 322.247 175.279 322.66C175.412 323.06 175.479 323.453 175.479 323.84V327.7ZM178.364 329V328.8C178.47 328.8 178.564 328.76 178.644 328.68C178.724 328.6 178.79 328.507 178.844 328.4C178.897 328.293 178.937 328.18 178.964 328.06C178.99 327.927 179.004 327.807 179.004 327.7V322.16C179.004 321.933 178.97 321.72 178.904 321.52C178.837 321.307 178.644 321.193 178.324 321.18V321L180.324 320.36V327.7C180.324 327.807 180.337 327.927 180.364 328.06C180.39 328.18 180.43 328.293 180.484 328.4C180.537 328.507 180.604 328.6 180.684 328.68C180.764 328.76 180.857 328.8 180.964 328.8V329H178.364ZM178.464 318.44C178.464 318.173 178.55 317.947 178.724 317.76C178.91 317.573 179.137 317.48 179.404 317.48C179.67 317.48 179.897 317.573 180.084 317.76C180.27 317.947 180.364 318.173 180.364 318.44C180.364 318.707 180.27 318.927 180.084 319.1C179.897 319.273 179.67 319.36 179.404 319.36C179.137 319.36 178.91 319.273 178.724 319.1C178.55 318.927 178.464 318.707 178.464 318.44ZM188.843 333C188.95 333 189.043 332.96 189.123 332.88C189.203 332.8 189.27 332.707 189.323 332.6C189.376 332.493 189.416 332.373 189.443 332.24C189.47 332.12 189.483 332.007 189.483 331.9V328.12C189.243 328.427 188.95 328.673 188.603 328.86C188.256 329.047 187.783 329.14 187.183 329.14C186.476 329.14 185.856 329.02 185.323 328.78C184.803 328.527 184.37 328.193 184.023 327.78C183.676 327.367 183.416 326.9 183.243 326.38C183.083 325.86 183.003 325.327 183.003 324.78C183.003 324.247 183.096 323.72 183.283 323.2C183.483 322.68 183.756 322.22 184.103 321.82C184.463 321.407 184.896 321.08 185.403 320.84C185.923 320.587 186.503 320.46 187.143 320.46C187.61 320.46 188.07 320.573 188.523 320.8C188.99 321.013 189.356 321.267 189.623 321.56L190.803 320.3V331.9C190.803 332.007 190.816 332.12 190.843 332.24C190.87 332.373 190.91 332.493 190.963 332.6C191.016 332.707 191.083 332.8 191.163 332.88C191.243 332.96 191.336 333 191.443 333V333.2H188.843V333ZM187.303 328.46C187.583 328.46 187.85 328.407 188.103 328.3C188.37 328.18 188.603 328.027 188.803 327.84C189.016 327.64 189.183 327.413 189.303 327.16C189.423 326.893 189.483 326.607 189.483 326.3V323.58C189.483 323.193 189.41 322.853 189.263 322.56C189.116 322.253 188.93 322 188.703 321.8C188.476 321.587 188.216 321.427 187.923 321.32C187.63 321.213 187.336 321.16 187.043 321.16C186.603 321.16 186.21 321.26 185.863 321.46C185.53 321.647 185.243 321.9 185.003 322.22C184.776 322.54 184.603 322.9 184.483 323.3C184.363 323.7 184.303 324.107 184.303 324.52C184.303 324.987 184.37 325.453 184.503 325.92C184.636 326.387 184.83 326.807 185.083 327.18C185.35 327.54 185.663 327.84 186.023 328.08C186.396 328.32 186.823 328.447 187.303 328.46ZM201.297 327.7C201.297 327.793 201.31 327.907 201.337 328.04C201.363 328.16 201.397 328.28 201.437 328.4C201.49 328.507 201.557 328.6 201.637 328.68C201.717 328.76 201.81 328.8 201.917 328.8V329H199.977V327.9C199.777 328.193 199.483 328.48 199.097 328.76C198.71 329.04 198.21 329.18 197.597 329.18C196.823 329.18 196.21 329.047 195.757 328.78C195.303 328.513 194.957 328.173 194.717 327.76C194.477 327.347 194.323 326.9 194.257 326.42C194.19 325.927 194.157 325.467 194.157 325.04V322.18C194.157 322.06 194.15 321.947 194.137 321.84C194.137 321.72 194.11 321.613 194.057 321.52C194.017 321.427 193.95 321.353 193.857 321.3C193.763 321.233 193.63 321.2 193.457 321.2V321.02L195.477 320.38V325.48C195.477 326.493 195.697 327.24 196.137 327.72C196.577 328.2 197.117 328.44 197.757 328.44C198.103 328.44 198.41 328.367 198.677 328.22C198.957 328.06 199.19 327.873 199.377 327.66C199.577 327.447 199.723 327.227 199.817 327C199.923 326.773 199.977 326.587 199.977 326.44V322.18C199.977 322.06 199.97 321.947 199.957 321.84C199.957 321.72 199.93 321.613 199.877 321.52C199.837 321.427 199.77 321.353 199.677 321.3C199.583 321.233 199.45 321.2 199.277 321.2V321.02L201.297 320.38V327.7ZM204.965 324.96C205.018 325.427 205.132 325.873 205.305 326.3C205.478 326.713 205.705 327.08 205.985 327.4C206.278 327.72 206.632 327.98 207.045 328.18C207.458 328.367 207.938 328.46 208.485 328.46C208.778 328.46 209.085 328.42 209.405 328.34C209.738 328.247 210.045 328.12 210.325 327.96C210.605 327.8 210.852 327.607 211.065 327.38C211.292 327.14 211.445 326.873 211.525 326.58H211.705V328.08C211.625 328.08 211.532 328.107 211.425 328.16C211.332 328.213 211.218 328.28 211.085 328.36C210.818 328.52 210.458 328.693 210.005 328.88C209.552 329.053 208.952 329.14 208.205 329.14C207.605 329.14 207.032 329.053 206.485 328.88C205.952 328.707 205.478 328.44 205.065 328.08C204.652 327.72 204.318 327.26 204.065 326.7C203.825 326.14 203.705 325.473 203.705 324.7C203.705 324.207 203.785 323.707 203.945 323.2C204.118 322.693 204.372 322.24 204.705 321.84C205.052 321.427 205.492 321.093 206.025 320.84C206.558 320.587 207.198 320.46 207.945 320.46C208.612 320.46 209.192 320.573 209.685 320.8C210.192 321.027 210.605 321.34 210.925 321.74C211.258 322.14 211.505 322.613 211.665 323.16C211.825 323.707 211.905 324.307 211.905 324.96H204.965ZM207.865 321.12C207.398 321.12 206.992 321.213 206.645 321.4C206.312 321.587 206.025 321.827 205.785 322.12C205.545 322.413 205.358 322.747 205.225 323.12C205.092 323.493 205.005 323.867 204.965 324.24H210.665C210.652 323.853 210.578 323.473 210.445 323.1C210.325 322.727 210.152 322.393 209.925 322.1C209.698 321.807 209.412 321.573 209.065 321.4C208.718 321.213 208.318 321.12 207.865 321.12ZM226.867 325.46C226.867 326.127 226.734 326.7 226.467 327.18C226.201 327.647 225.854 328.027 225.427 328.32C225.014 328.613 224.541 328.827 224.007 328.96C223.487 329.093 222.967 329.16 222.447 329.16C221.914 329.16 221.454 329.107 221.067 329C220.681 328.893 220.327 328.793 220.007 328.7C219.794 328.633 219.601 328.58 219.427 328.54C219.254 328.487 219.081 328.46 218.907 328.46V326.18H219.107C219.107 326.687 219.234 327.093 219.487 327.4C219.754 327.693 220.061 327.92 220.407 328.08C220.754 328.24 221.101 328.347 221.447 328.4C221.794 328.44 222.047 328.46 222.207 328.46C222.781 328.46 223.274 328.38 223.687 328.22C224.101 328.047 224.441 327.827 224.707 327.56C224.974 327.28 225.167 326.973 225.287 326.64C225.421 326.307 225.487 325.967 225.487 325.62C225.487 325.18 225.394 324.813 225.207 324.52C225.021 324.213 224.774 323.947 224.467 323.72C224.174 323.493 223.834 323.3 223.447 323.14C223.061 322.98 222.667 322.82 222.267 322.66C221.814 322.487 221.367 322.307 220.927 322.12C220.487 321.933 220.094 321.707 219.747 321.44C219.401 321.16 219.121 320.833 218.907 320.46C218.694 320.073 218.587 319.6 218.587 319.04C218.587 318.453 218.701 317.947 218.927 317.52C219.154 317.08 219.454 316.72 219.827 316.44C220.214 316.16 220.647 315.953 221.127 315.82C221.621 315.673 222.121 315.6 222.627 315.6C222.974 315.6 223.301 315.627 223.607 315.68C223.914 315.72 224.207 315.773 224.487 315.84C224.714 315.893 224.934 315.94 225.147 315.98C225.361 316.007 225.567 316.02 225.767 316.02V318.08H225.567C225.541 317.387 225.267 316.92 224.747 316.68C224.227 316.427 223.507 316.3 222.587 316.3C222.054 316.3 221.614 316.393 221.267 316.58C220.934 316.753 220.667 316.973 220.467 317.24C220.267 317.493 220.127 317.773 220.047 318.08C219.981 318.373 219.947 318.633 219.947 318.86C219.947 319.233 220.027 319.553 220.187 319.82C220.361 320.087 220.587 320.32 220.867 320.52C221.147 320.72 221.467 320.9 221.827 321.06C222.201 321.22 222.587 321.373 222.987 321.52C223.441 321.693 223.901 321.88 224.367 322.08C224.834 322.28 225.247 322.527 225.607 322.82C225.981 323.113 226.281 323.473 226.507 323.9C226.747 324.327 226.867 324.847 226.867 325.46ZM232.832 320.46C233.552 320.46 234.172 320.587 234.692 320.84C235.225 321.08 235.665 321.4 236.012 321.8C236.372 322.2 236.639 322.66 236.812 323.18C236.985 323.7 237.072 324.233 237.072 324.78C237.072 325.313 236.985 325.84 236.812 326.36C236.652 326.88 236.399 327.347 236.052 327.76C235.719 328.173 235.299 328.507 234.792 328.76C234.285 329.013 233.685 329.14 232.992 329.14C232.579 329.14 232.152 329.033 231.712 328.82C231.285 328.593 230.899 328.313 230.552 327.98V331.9C230.552 332.007 230.565 332.12 230.592 332.24C230.619 332.373 230.659 332.493 230.712 332.6C230.779 332.707 230.845 332.8 230.912 332.88C230.992 332.96 231.085 333 231.192 333V333.2H228.592V333C228.685 333 228.772 332.96 228.852 332.88C228.932 332.8 228.999 332.707 229.052 332.6C229.119 332.493 229.165 332.373 229.192 332.24C229.219 332.12 229.232 332.007 229.232 331.9V321.78C229.232 321.66 229.225 321.547 229.212 321.44C229.212 321.32 229.192 321.22 229.152 321.14C229.112 321.047 229.045 320.973 228.952 320.92C228.872 320.853 228.752 320.813 228.592 320.8V320.6H230.552V321.48C230.819 321.16 231.139 320.913 231.512 320.74C231.899 320.553 232.339 320.46 232.832 320.46ZM233.012 328.46C233.479 328.447 233.885 328.34 234.232 328.14C234.579 327.94 234.865 327.68 235.092 327.36C235.319 327.04 235.485 326.687 235.592 326.3C235.699 325.9 235.752 325.487 235.752 325.06C235.752 324.58 235.685 324.107 235.552 323.64C235.419 323.173 235.225 322.76 234.972 322.4C234.719 322.027 234.405 321.727 234.032 321.5C233.672 321.26 233.259 321.14 232.792 321.14C232.512 321.14 232.232 321.193 231.952 321.3C231.685 321.407 231.445 321.56 231.232 321.76C231.032 321.96 230.865 322.2 230.732 322.48C230.612 322.747 230.552 323.047 230.552 323.38V326C230.552 326.36 230.625 326.693 230.772 327C230.919 327.293 231.105 327.553 231.332 327.78C231.572 327.993 231.839 328.16 232.132 328.28C232.425 328.4 232.719 328.46 233.012 328.46ZM243.065 329.14C242.398 329.14 241.798 329.033 241.265 328.82C240.732 328.593 240.272 328.293 239.885 327.92C239.512 327.533 239.218 327.08 239.005 326.56C238.805 326.04 238.705 325.473 238.705 324.86C238.705 324.207 238.818 323.613 239.045 323.08C239.272 322.533 239.585 322.067 239.985 321.68C240.385 321.293 240.858 320.993 241.405 320.78C241.952 320.567 242.545 320.46 243.185 320.46C243.825 320.46 244.412 320.567 244.945 320.78C245.478 320.98 245.938 321.267 246.325 321.64C246.712 322.013 247.012 322.46 247.225 322.98C247.438 323.487 247.545 324.047 247.545 324.66C247.545 325.233 247.445 325.793 247.245 326.34C247.058 326.873 246.772 327.347 246.385 327.76C246.012 328.173 245.545 328.507 244.985 328.76C244.438 329.013 243.798 329.14 243.065 329.14ZM242.945 321.12C242.465 321.147 242.038 321.267 241.665 321.48C241.305 321.68 240.998 321.947 240.745 322.28C240.505 322.6 240.318 322.967 240.185 323.38C240.065 323.793 240.005 324.213 240.005 324.64C240.005 325.133 240.078 325.613 240.225 326.08C240.385 326.533 240.605 326.94 240.885 327.3C241.178 327.66 241.525 327.947 241.925 328.16C242.325 328.373 242.772 328.48 243.265 328.48C243.758 328.48 244.192 328.373 244.565 328.16C244.952 327.947 245.272 327.673 245.525 327.34C245.778 326.993 245.965 326.607 246.085 326.18C246.218 325.753 246.285 325.327 246.285 324.9C246.285 324.46 246.218 324.02 246.085 323.58C245.952 323.127 245.745 322.72 245.465 322.36C245.185 321.987 244.832 321.687 244.405 321.46C243.992 321.233 243.505 321.12 242.945 321.12ZM251.294 321.28V326.1C251.294 326.447 251.3 326.76 251.314 327.04C251.327 327.32 251.36 327.553 251.414 327.74C251.467 327.927 251.547 328.073 251.654 328.18C251.76 328.273 251.907 328.32 252.094 328.32C252.374 328.32 252.634 328.187 252.874 327.92C253.127 327.653 253.287 327.333 253.354 326.96H253.534V328.42C253.414 328.42 253.314 328.46 253.234 328.54C253.127 328.633 252.974 328.733 252.774 328.84C252.587 328.947 252.3 329 251.914 329C251.434 329 251.06 328.907 250.794 328.72C250.527 328.533 250.334 328.287 250.214 327.98C250.094 327.673 250.02 327.333 249.994 326.96C249.98 326.587 249.974 326.207 249.974 325.82V321.28H248.854V320.6H249.974V318.82C249.974 318.593 249.94 318.387 249.874 318.2C249.82 318 249.627 317.893 249.294 317.88V317.68L251.294 317.04V320.6H253.534V321.28H251.294ZM255.317 329V328.8C255.423 328.8 255.517 328.76 255.597 328.68C255.677 328.6 255.743 328.507 255.797 328.4C255.85 328.293 255.89 328.18 255.917 328.06C255.943 327.927 255.957 327.807 255.957 327.7V322.16C255.957 321.933 255.923 321.72 255.857 321.52C255.79 321.307 255.597 321.193 255.277 321.18V321L257.277 320.36V327.7C257.277 327.807 257.29 327.927 257.317 328.06C257.343 328.18 257.383 328.293 257.437 328.4C257.49 328.507 257.557 328.6 257.637 328.68C257.717 328.76 257.81 328.8 257.917 328.8V329H255.317ZM255.417 318.44C255.417 318.173 255.503 317.947 255.677 317.76C255.863 317.573 256.09 317.48 256.357 317.48C256.623 317.48 256.85 317.573 257.037 317.76C257.223 317.947 257.317 318.173 257.317 318.44C257.317 318.707 257.223 318.927 257.037 319.1C256.85 319.273 256.623 319.36 256.357 319.36C256.09 319.36 255.863 319.273 255.677 319.1C255.503 318.927 255.417 318.707 255.417 318.44ZM261.916 321.28V327.7C261.916 327.807 261.93 327.927 261.956 328.06C261.983 328.18 262.023 328.293 262.076 328.4C262.143 328.507 262.21 328.6 262.276 328.68C262.356 328.76 262.45 328.8 262.556 328.8V329H259.956V328.8C260.05 328.8 260.136 328.76 260.216 328.68C260.296 328.6 260.363 328.507 260.416 328.4C260.483 328.293 260.53 328.18 260.556 328.06C260.583 327.927 260.596 327.807 260.596 327.7V321.28H259.596V320.6H260.596V318.98C260.596 318.567 260.61 318.167 260.636 317.78C260.663 317.393 260.743 317.047 260.876 316.74C261.01 316.433 261.21 316.187 261.476 316C261.756 315.813 262.136 315.72 262.616 315.72C262.883 315.72 263.11 315.753 263.296 315.82C263.496 315.873 263.663 315.94 263.796 316.02C263.943 316.087 264.063 316.153 264.156 316.22C264.25 316.273 264.33 316.3 264.396 316.3V317.76H264.216C264.15 317.373 263.976 317.053 263.696 316.8C263.416 316.533 263.136 316.4 262.856 316.4C262.47 316.4 262.216 316.607 262.096 317.02C261.976 317.42 261.916 317.98 261.916 318.7V320.6H264.176V321.28H261.916ZM268.862 331.86C268.675 332.42 268.435 332.8 268.142 333C267.862 333.2 267.568 333.3 267.262 333.3C267.062 333.3 266.882 333.273 266.722 333.22C266.575 333.167 266.442 333.1 266.322 333.02C266.215 332.953 266.128 332.887 266.062 332.82C265.995 332.753 265.955 332.7 265.942 332.66L266.602 331.04C266.668 331.28 266.735 331.46 266.802 331.58C266.868 331.713 266.962 331.833 267.082 331.94C267.202 332.047 267.348 332.1 267.522 332.1C267.842 332.1 268.095 331.867 268.282 331.4L269.262 328.94L266.042 321.66C265.975 321.5 265.862 321.32 265.702 321.12C265.555 320.907 265.348 320.8 265.082 320.8V320.6H267.722V320.8C267.668 320.8 267.602 320.847 267.522 320.94C267.442 321.033 267.402 321.153 267.402 321.3C267.402 321.42 267.428 321.527 267.482 321.62L269.942 327.28L272.302 321.5C272.342 321.407 272.362 321.32 272.362 321.24C272.362 321.107 272.315 321 272.222 320.92C272.142 320.84 272.055 320.8 271.962 320.8V320.6H273.902V320.8C273.688 320.8 273.502 320.893 273.342 321.08C273.195 321.253 273.075 321.453 272.982 321.68L268.862 331.86ZM287.71 328.28C287.603 328.28 287.503 328.307 287.41 328.36C287.316 328.4 287.21 328.453 287.09 328.52C286.863 328.653 286.576 328.793 286.23 328.94C285.883 329.073 285.43 329.14 284.87 329.14C284.19 329.14 283.556 329.033 282.97 328.82C282.396 328.593 281.896 328.287 281.47 327.9C281.056 327.5 280.73 327.04 280.49 326.52C280.263 325.987 280.15 325.413 280.15 324.8C280.15 324.227 280.25 323.68 280.45 323.16C280.663 322.64 280.963 322.18 281.35 321.78C281.736 321.38 282.21 321.06 282.77 320.82C283.343 320.58 283.99 320.46 284.71 320.46C285.203 320.46 285.603 320.52 285.91 320.64C286.216 320.747 286.476 320.853 286.69 320.96C286.81 321.027 286.923 321.08 287.03 321.12C287.15 321.16 287.27 321.18 287.39 321.18V322.7H287.19C287.123 322.447 287.003 322.227 286.83 322.04C286.656 321.84 286.456 321.673 286.23 321.54C286.003 321.407 285.756 321.307 285.49 321.24C285.223 321.173 284.963 321.14 284.71 321.14C284.163 321.14 283.683 321.24 283.27 321.44C282.856 321.627 282.516 321.88 282.25 322.2C281.983 322.507 281.783 322.86 281.65 323.26C281.516 323.66 281.45 324.073 281.45 324.5C281.45 324.993 281.53 325.48 281.69 325.96C281.85 326.427 282.076 326.847 282.37 327.22C282.676 327.593 283.043 327.893 283.47 328.12C283.896 328.347 284.376 328.46 284.91 328.46C285.283 328.46 285.623 328.407 285.93 328.3C286.25 328.193 286.516 328.053 286.73 327.88C286.956 327.707 287.136 327.52 287.27 327.32C287.403 327.107 287.483 326.907 287.51 326.72H287.71V328.28ZM293.241 329.14C292.574 329.14 291.974 329.033 291.441 328.82C290.907 328.593 290.447 328.293 290.061 327.92C289.687 327.533 289.394 327.08 289.181 326.56C288.981 326.04 288.881 325.473 288.881 324.86C288.881 324.207 288.994 323.613 289.221 323.08C289.447 322.533 289.761 322.067 290.161 321.68C290.561 321.293 291.034 320.993 291.581 320.78C292.127 320.567 292.721 320.46 293.361 320.46C294.001 320.46 294.587 320.567 295.121 320.78C295.654 320.98 296.114 321.267 296.501 321.64C296.887 322.013 297.187 322.46 297.401 322.98C297.614 323.487 297.721 324.047 297.721 324.66C297.721 325.233 297.621 325.793 297.421 326.34C297.234 326.873 296.947 327.347 296.561 327.76C296.187 328.173 295.721 328.507 295.161 328.76C294.614 329.013 293.974 329.14 293.241 329.14ZM293.121 321.12C292.641 321.147 292.214 321.267 291.841 321.48C291.481 321.68 291.174 321.947 290.921 322.28C290.681 322.6 290.494 322.967 290.361 323.38C290.241 323.793 290.181 324.213 290.181 324.64C290.181 325.133 290.254 325.613 290.401 326.08C290.561 326.533 290.781 326.94 291.061 327.3C291.354 327.66 291.701 327.947 292.101 328.16C292.501 328.373 292.947 328.48 293.441 328.48C293.934 328.48 294.367 328.373 294.741 328.16C295.127 327.947 295.447 327.673 295.701 327.34C295.954 326.993 296.141 326.607 296.261 326.18C296.394 325.753 296.461 325.327 296.461 324.9C296.461 324.46 296.394 324.02 296.261 323.58C296.127 323.127 295.921 322.72 295.641 322.36C295.361 321.987 295.007 321.687 294.581 321.46C294.167 321.233 293.681 321.12 293.121 321.12ZM299.589 329V328.8C299.696 328.8 299.789 328.76 299.869 328.68C299.949 328.6 300.016 328.507 300.069 328.4C300.136 328.293 300.183 328.18 300.209 328.06C300.236 327.927 300.249 327.807 300.249 327.7V317.46C300.249 317.233 300.216 317.02 300.149 316.82C300.083 316.62 299.883 316.513 299.549 316.5V316.3L301.569 315.68V327.7C301.569 327.807 301.583 327.927 301.609 328.06C301.636 328.18 301.676 328.293 301.729 328.4C301.796 328.507 301.863 328.6 301.929 328.68C302.009 328.76 302.103 328.8 302.209 328.8V329H299.589ZM304.218 329V328.8C304.325 328.8 304.418 328.76 304.498 328.68C304.578 328.6 304.645 328.507 304.698 328.4C304.765 328.293 304.812 328.18 304.838 328.06C304.865 327.927 304.878 327.807 304.878 327.7V317.46C304.878 317.233 304.845 317.02 304.778 316.82C304.712 316.62 304.512 316.513 304.178 316.5V316.3L306.198 315.68V327.7C306.198 327.807 306.212 327.927 306.238 328.06C306.265 328.18 306.305 328.293 306.358 328.4C306.425 328.507 306.492 328.6 306.558 328.68C306.638 328.76 306.732 328.8 306.838 328.8V329H304.218ZM314.047 329V327.98L313.947 328.08C313.614 328.413 313.227 328.673 312.787 328.86C312.361 329.047 311.841 329.14 311.227 329.14C310.761 329.14 310.361 329.087 310.027 328.98C309.694 328.873 309.421 328.727 309.207 328.54C308.994 328.34 308.834 328.113 308.727 327.86C308.634 327.607 308.587 327.34 308.587 327.06C308.587 326.607 308.707 326.207 308.947 325.86C309.201 325.513 309.561 325.207 310.027 324.94C310.494 324.673 311.061 324.433 311.727 324.22C312.407 323.993 313.181 323.773 314.047 323.56C314.021 323.04 313.914 322.62 313.727 322.3C313.541 321.98 313.321 321.733 313.067 321.56C312.814 321.373 312.547 321.253 312.267 321.2C311.987 321.133 311.747 321.1 311.547 321.1C311.201 321.1 310.894 321.153 310.627 321.26C310.374 321.367 310.147 321.507 309.947 321.68C309.761 321.84 309.601 322.02 309.467 322.22C309.334 322.407 309.227 322.587 309.147 322.76H308.967V321.3C309.074 321.287 309.174 321.253 309.267 321.2C309.361 321.147 309.474 321.093 309.607 321.04C309.807 320.96 310.081 320.847 310.427 320.7C310.774 320.54 311.261 320.46 311.887 320.46C312.621 320.46 313.214 320.553 313.667 320.74C314.121 320.927 314.467 321.173 314.707 321.48C314.961 321.787 315.127 322.14 315.207 322.54C315.287 322.927 315.327 323.327 315.327 323.74V327.7C315.327 327.967 315.387 328.22 315.507 328.46C315.627 328.687 315.787 328.8 315.987 328.8V329H314.047ZM314.047 327.1V324.24L313.847 324.28C313.527 324.36 313.134 324.467 312.667 324.6C312.214 324.733 311.781 324.907 311.367 325.12C310.954 325.333 310.601 325.587 310.307 325.88C310.014 326.173 309.867 326.513 309.867 326.9C309.867 327.327 310.041 327.68 310.387 327.96C310.734 328.24 311.187 328.38 311.747 328.38C312.187 328.38 312.574 328.287 312.907 328.1C313.241 327.9 313.547 327.647 313.827 327.34L314.047 327.1ZM322.068 332.72C322.468 332.72 322.848 332.68 323.208 332.6C323.568 332.533 323.881 332.433 324.148 332.3C324.428 332.167 324.648 332.007 324.808 331.82C324.968 331.633 325.048 331.433 325.048 331.22C325.048 330.993 324.934 330.8 324.708 330.64C324.494 330.48 324.201 330.34 323.828 330.22C323.454 330.1 323.021 329.993 322.528 329.9C322.034 329.82 321.521 329.733 320.988 329.64L319.968 329.46C319.661 329.7 319.448 329.953 319.328 330.22C319.208 330.487 319.148 330.72 319.148 330.92C319.148 331.2 319.221 331.447 319.368 331.66C319.528 331.887 319.734 332.08 319.988 332.24C320.254 332.4 320.561 332.52 320.908 332.6C321.268 332.68 321.654 332.72 322.068 332.72ZM323.168 328.72C323.701 328.8 324.141 328.907 324.488 329.04C324.848 329.173 325.134 329.327 325.348 329.5C325.561 329.687 325.708 329.887 325.788 330.1C325.868 330.327 325.908 330.567 325.908 330.82C325.908 331.273 325.781 331.667 325.528 332C325.288 332.333 324.968 332.607 324.568 332.82C324.181 333.047 323.734 333.213 323.228 333.32C322.734 333.427 322.228 333.48 321.708 333.48C321.201 333.48 320.714 333.427 320.248 333.32C319.781 333.227 319.368 333.08 319.008 332.88C318.648 332.68 318.361 332.427 318.148 332.12C317.934 331.827 317.828 331.487 317.828 331.1C317.828 330.753 317.934 330.42 318.148 330.1C318.361 329.793 318.708 329.487 319.188 329.18C318.721 328.94 318.361 328.62 318.108 328.22C317.868 327.807 317.748 327.387 317.748 326.96C317.748 326.707 317.808 326.46 317.928 326.22C318.048 325.967 318.241 325.733 318.508 325.52C318.281 325.253 318.121 324.987 318.028 324.72C317.934 324.453 317.888 324.167 317.888 323.86C317.888 323.38 317.988 322.933 318.188 322.52C318.388 322.107 318.661 321.747 319.008 321.44C319.354 321.133 319.761 320.893 320.228 320.72C320.694 320.547 321.194 320.46 321.728 320.46C322.288 320.46 322.821 320.56 323.328 320.76C323.834 320.947 324.261 321.193 324.608 321.5H326.048V322.22H325.128C325.221 322.42 325.314 322.66 325.408 322.94C325.501 323.207 325.548 323.487 325.548 323.78C325.548 324.207 325.448 324.613 325.248 325C325.048 325.373 324.768 325.707 324.408 326C324.061 326.28 323.648 326.507 323.168 326.68C322.701 326.84 322.201 326.92 321.668 326.92C321.174 326.92 320.694 326.847 320.228 326.7C319.761 326.553 319.348 326.34 318.988 326.06C318.841 326.153 318.741 326.273 318.688 326.42C318.634 326.553 318.608 326.693 318.608 326.84C318.608 327.267 318.801 327.6 319.188 327.84C319.574 328.067 320.068 328.227 320.668 328.32L323.168 328.72ZM321.488 321.16C321.168 321.16 320.868 321.22 320.588 321.34C320.308 321.447 320.061 321.6 319.848 321.8C319.634 322 319.461 322.247 319.328 322.54C319.208 322.82 319.148 323.14 319.148 323.5C319.148 323.94 319.234 324.333 319.408 324.68C319.594 325.027 319.828 325.313 320.108 325.54C320.388 325.767 320.694 325.94 321.028 326.06C321.374 326.18 321.701 326.24 322.008 326.24C322.341 326.24 322.641 326.18 322.908 326.06C323.188 325.927 323.428 325.753 323.628 325.54C323.828 325.313 323.981 325.053 324.088 324.76C324.194 324.467 324.248 324.16 324.248 323.84C324.248 323.44 324.168 323.073 324.008 322.74C323.848 322.407 323.634 322.127 323.368 321.9C323.114 321.66 322.821 321.48 322.488 321.36C322.154 321.227 321.821 321.16 321.488 321.16ZM328.91 324.96C328.963 325.427 329.077 325.873 329.25 326.3C329.423 326.713 329.65 327.08 329.93 327.4C330.223 327.72 330.577 327.98 330.99 328.18C331.403 328.367 331.883 328.46 332.43 328.46C332.723 328.46 333.03 328.42 333.35 328.34C333.683 328.247 333.99 328.12 334.27 327.96C334.55 327.8 334.797 327.607 335.01 327.38C335.237 327.14 335.39 326.873 335.47 326.58H335.65V328.08C335.57 328.08 335.477 328.107 335.37 328.16C335.277 328.213 335.163 328.28 335.03 328.36C334.763 328.52 334.403 328.693 333.95 328.88C333.497 329.053 332.897 329.14 332.15 329.14C331.55 329.14 330.977 329.053 330.43 328.88C329.897 328.707 329.423 328.44 329.01 328.08C328.597 327.72 328.263 327.26 328.01 326.7C327.77 326.14 327.65 325.473 327.65 324.7C327.65 324.207 327.73 323.707 327.89 323.2C328.063 322.693 328.317 322.24 328.65 321.84C328.997 321.427 329.437 321.093 329.97 320.84C330.503 320.587 331.143 320.46 331.89 320.46C332.557 320.46 333.137 320.573 333.63 320.8C334.137 321.027 334.55 321.34 334.87 321.74C335.203 322.14 335.45 322.613 335.61 323.16C335.77 323.707 335.85 324.307 335.85 324.96H328.91ZM331.81 321.12C331.343 321.12 330.937 321.213 330.59 321.4C330.257 321.587 329.97 321.827 329.73 322.12C329.49 322.413 329.303 322.747 329.17 323.12C329.037 323.493 328.95 323.867 328.91 324.24H334.61C334.597 323.853 334.523 323.473 334.39 323.1C334.27 322.727 334.097 322.393 333.87 322.1C333.643 321.807 333.357 321.573 333.01 321.4C332.663 321.213 332.263 321.12 331.81 321.12ZM337.777 315.82H340.357V316.02C340.184 316.02 340.051 316.147 339.957 316.4C339.864 316.64 339.811 316.86 339.797 317.06L339.277 326.72H339.037L338.437 317.06C338.437 316.967 338.417 316.86 338.377 316.74C338.351 316.62 338.311 316.507 338.257 316.4C338.204 316.293 338.137 316.207 338.057 316.14C337.977 316.06 337.884 316.02 337.777 316.02V315.82ZM338.217 328.24C338.217 327.973 338.304 327.747 338.477 327.56C338.664 327.373 338.891 327.28 339.157 327.28C339.424 327.28 339.644 327.373 339.817 327.56C340.004 327.747 340.097 327.973 340.097 328.24C340.097 328.507 340.004 328.733 339.817 328.92C339.644 329.093 339.424 329.18 339.157 329.18C338.891 329.18 338.664 329.093 338.477 328.92C338.304 328.733 338.217 328.507 338.217 328.24Z" fill="black"/>
<circle cx="34" cy="90" r="90" fill="#58B066"/>
<circle cx="128" cy="135" r="39" fill="#58B066" fill-opacity="0.54"/>
<circle cx="407.5" cy="28.5" r="122.5" fill="#58B066"/>
<circle cy="571" r="153" fill="#329B43"/>
<circle cx="151.5" cy="666.5" r="77.5" fill="#58B066"/>
<circle cx="317.5" cy="635.5" r="140.5" fill="#58B066" fill-opacity="0.44"/>
</g>
<defs>
<clipPath id="clip0_1_140">
<rect width="375" height="667" fill="white"/>
</clipPath>
</defs>
</svg>
