<svg width="1318" height="850" viewBox="0 0 1318 850" fill="none" xmlns="http://www.w3.org/2000/svg">
<g clip-path="url(#clip0_1_140)">
<rect width="1318" height="850" fill="#C0E8B9"/>
<circle cx="942.5" cy="397.5" r="208.5" fill="#58B066" fill-opacity="0.17"/>
<path d="M502.144 340.28C495.573 340.28 489.643 338.872 484.352 336.056C479.147 333.24 475.008 329.101 471.936 323.64C468.949 318.093 467.456 311.224 467.456 303.032C467.541 294.755 469.035 287.843 471.936 282.296C474.923 276.749 479.061 272.611 484.352 269.88C489.643 267.064 495.744 265.656 502.656 265.656C511.019 265.656 518.016 267.917 523.648 272.44C529.365 276.963 532.992 283.448 534.528 291.896H528.512C527.232 285.069 524.245 279.907 519.552 276.408C514.859 272.824 509.227 271.032 502.656 271.032C493.611 271.032 486.443 273.763 481.152 279.224C475.947 284.685 473.344 292.536 473.344 302.776C473.344 313.357 475.904 321.379 481.024 326.84C486.229 332.216 493.269 334.904 502.144 334.904C509.397 334.904 515.371 333.112 520.064 329.528C524.757 325.944 527.701 320.824 528.896 314.168H535.168C533.547 322.445 529.92 328.888 524.288 333.496C518.656 338.019 511.275 340.28 502.144 340.28ZM567.779 340.28C559.672 340.28 553.571 337.805 549.475 332.856C545.464 327.821 543.459 321.464 543.459 313.784C543.459 305.933 545.507 299.533 549.603 294.584C553.699 289.549 559.758 287.032 567.779 287.032C575.63 287.032 581.603 289.507 585.699 294.456C589.88 299.32 591.971 305.763 591.971 313.784C591.971 318.819 591.075 323.341 589.283 327.352C587.576 331.277 584.931 334.435 581.347 336.824C577.848 339.128 573.326 340.28 567.779 340.28ZM567.779 335.032C572.558 335.032 576.27 333.965 578.915 331.832C581.56 329.699 583.395 327.011 584.419 323.768C585.528 320.44 586.083 317.069 586.083 313.656C586.083 310.157 585.528 306.787 584.419 303.544C583.395 300.216 581.56 297.485 578.915 295.352C576.27 293.133 572.558 292.024 567.779 292.024C563 292.024 559.288 293.133 556.643 295.352C553.998 297.485 552.12 300.216 551.011 303.544C549.902 306.787 549.347 310.157 549.347 313.656C549.347 317.069 549.902 320.44 551.011 323.768C552.12 327.011 553.998 329.699 556.643 331.832C559.288 333.965 563 335.032 567.779 335.032ZM604.284 339V266.936H610.172V339H604.284ZM623.784 339V266.936H629.672V339H623.784ZM659.924 340.152C655.145 340.152 651.177 338.957 648.02 336.568C644.863 334.179 642.516 330.979 640.98 326.968C639.444 322.872 638.676 318.349 638.676 313.4C638.676 308.28 639.444 303.715 640.98 299.704C642.601 295.608 644.991 292.408 648.148 290.104C651.305 287.715 655.231 286.52 659.924 286.52C664.959 286.52 668.969 287.757 671.956 290.232C674.943 292.621 677.076 295.395 678.356 298.552H678.612V287.032H684.5V339H679.636L678.612 328.248H678.356C676.991 331.405 674.815 334.179 671.828 336.568C668.841 338.957 664.873 340.152 659.924 340.152ZM662.1 334.776C667.561 334.776 671.657 332.899 674.388 329.144C677.119 325.389 678.484 320.184 678.484 313.528C678.484 306.445 677.033 301.112 674.132 297.528C671.316 293.944 667.305 292.152 662.1 292.152C656.041 292.152 651.604 294.2 648.788 298.296C645.972 302.307 644.564 307.341 644.564 313.4C644.564 319.715 646.015 324.877 648.916 328.888C651.817 332.813 656.212 334.776 662.1 334.776ZM706.271 359.48V353.976H733.663V326.328H733.407C733.236 326.925 732.724 327.949 731.871 329.4C731.103 330.851 729.951 332.429 728.415 334.136C726.879 335.843 724.874 337.293 722.399 338.488C720.01 339.683 717.108 340.28 713.695 340.28C708.746 340.28 704.522 339.085 701.023 336.696C697.61 334.307 695.007 331.107 693.215 327.096C691.423 323.085 690.527 318.605 690.527 313.656C690.527 308.621 691.423 304.099 693.215 300.088C695.092 296.077 697.738 292.92 701.151 290.616C704.65 288.227 708.874 287.032 713.823 287.032C717.322 287.032 720.266 287.672 722.655 288.952C725.13 290.147 727.092 291.597 728.543 293.304C730.079 294.925 731.188 296.504 731.871 298.04C732.639 299.491 733.108 300.515 733.279 301.112H733.535L733.663 287.032H739.679V350.136C739.679 352.867 739.167 355.085 738.143 356.792C737.204 358.584 735.199 359.48 732.127 359.48H706.271ZM714.463 334.776C719.668 334.776 724.106 332.941 727.775 329.272C731.53 325.603 733.407 320.397 733.407 313.656C733.407 307.085 731.658 301.965 728.159 298.296C724.66 294.541 720.351 292.664 715.231 292.664C710.964 292.664 707.423 293.688 704.607 295.736C701.791 297.699 699.7 300.301 698.335 303.544C696.97 306.701 696.287 310.072 696.287 313.656C696.287 317.24 696.884 320.653 698.079 323.896C699.359 327.139 701.322 329.784 703.967 331.832C706.698 333.795 710.196 334.776 714.463 334.776ZM756.746 281.528C755.295 281.613 754.314 281.229 753.802 280.376C753.29 279.523 753.034 278.499 753.034 277.304C753.034 276.195 753.29 275.256 753.802 274.488C754.314 273.72 755.295 273.336 756.746 273.336C758.111 273.336 759.05 273.72 759.562 274.488C760.074 275.256 760.33 276.195 760.33 277.304C760.33 278.584 760.074 279.608 759.562 280.376C759.05 281.144 758.111 281.528 756.746 281.528ZM753.674 339V287.032H759.434V339H753.674ZM776.859 339.384V291.768H768.411V287.032H776.859V274.104C776.859 272.056 777.243 270.264 778.011 268.728C778.864 267.192 780.614 266.424 783.259 266.424H799.515V271.288H782.875V287.032H798.491V291.768H782.875V339.384H776.859ZM804.363 361.784V356.92H811.019C812.726 356.92 814.091 356.408 815.115 355.384C816.139 354.36 817.462 352.184 819.083 348.856L825.483 334.904L805.131 287.032H811.275L828.555 328.504L846.859 287.032H853.131L824.203 349.88C822.667 353.293 821.302 355.853 820.107 357.56C818.912 359.267 817.632 360.376 816.267 360.888C814.902 361.485 813.238 361.784 811.275 361.784H804.363Z" fill="black"/>
<path d="M370 401.08H375.72V401.48H375.52C375.307 401.48 375.12 401.56 374.96 401.72C374.8 401.853 374.667 402.027 374.56 402.24C374.453 402.453 374.36 402.68 374.28 402.92C374.227 403.16 374.2 403.373 374.2 403.56V414.28C373.72 414.467 373.173 414.627 372.56 414.76C371.947 414.893 371.307 415 370.64 415.08C369.973 415.187 369.293 415.267 368.6 415.32C367.907 415.373 367.267 415.4 366.68 415.4C364.28 415.4 362.187 415 360.4 414.2C358.613 413.4 357.133 412.36 355.96 411.08C354.787 409.773 353.907 408.307 353.32 406.68C352.76 405.053 352.48 403.413 352.48 401.76C352.48 400.107 352.76 398.467 353.32 396.84C353.907 395.213 354.787 393.76 355.96 392.48C357.16 391.2 358.653 390.173 360.44 389.4C362.253 388.6 364.4 388.2 366.88 388.2C367.813 388.2 368.68 388.28 369.48 388.44C370.28 388.6 370.987 388.747 371.6 388.88C371.947 388.96 372.24 389.04 372.48 389.12C372.747 389.173 372.973 389.2 373.16 389.2H373.52V393.44H373.12C372.96 392.613 372.64 391.947 372.16 391.44C371.707 390.933 371.173 390.547 370.56 390.28C369.947 390.013 369.293 389.84 368.6 389.76C367.933 389.653 367.307 389.6 366.72 389.6C364.72 389.6 362.987 389.96 361.52 390.68C360.053 391.373 358.853 392.28 357.92 393.4C356.987 394.52 356.293 395.787 355.84 397.2C355.387 398.587 355.16 399.973 355.16 401.36C355.16 402.907 355.453 404.44 356.04 405.96C356.627 407.453 357.453 408.8 358.52 410C359.587 411.173 360.867 412.133 362.36 412.88C363.88 413.6 365.56 413.96 367.4 413.96C367.907 413.96 368.533 413.907 369.28 413.8C370.027 413.667 370.773 413.387 371.52 412.96V403.56C371.52 403.373 371.493 403.16 371.44 402.92C371.387 402.68 371.293 402.453 371.16 402.24C371.053 402.027 370.92 401.853 370.76 401.72C370.6 401.56 370.413 401.48 370.2 401.48H370V401.08ZM381.289 406.92C381.396 407.853 381.622 408.747 381.969 409.6C382.316 410.427 382.769 411.16 383.329 411.8C383.916 412.44 384.622 412.96 385.449 413.36C386.276 413.733 387.236 413.92 388.329 413.92C388.916 413.92 389.529 413.84 390.169 413.68C390.836 413.493 391.449 413.24 392.009 412.92C392.569 412.6 393.062 412.213 393.489 411.76C393.942 411.28 394.249 410.747 394.409 410.16H394.769V413.16C394.609 413.16 394.422 413.213 394.209 413.32C394.022 413.427 393.796 413.56 393.529 413.72C392.996 414.04 392.276 414.387 391.369 414.76C390.462 415.107 389.262 415.28 387.769 415.28C386.569 415.28 385.422 415.107 384.329 414.76C383.262 414.413 382.316 413.88 381.489 413.16C380.662 412.44 379.996 411.52 379.489 410.4C379.009 409.28 378.769 407.947 378.769 406.4C378.769 405.413 378.929 404.413 379.249 403.4C379.596 402.387 380.102 401.48 380.769 400.68C381.462 399.853 382.342 399.187 383.409 398.68C384.476 398.173 385.756 397.92 387.249 397.92C388.582 397.92 389.742 398.147 390.729 398.6C391.742 399.053 392.569 399.68 393.209 400.48C393.876 401.28 394.369 402.227 394.689 403.32C395.009 404.413 395.169 405.613 395.169 406.92H381.289ZM387.089 399.24C386.156 399.24 385.342 399.427 384.649 399.8C383.982 400.173 383.409 400.653 382.929 401.24C382.449 401.827 382.076 402.493 381.809 403.24C381.542 403.987 381.369 404.733 381.289 405.48H392.689C392.662 404.707 392.516 403.947 392.249 403.2C392.009 402.453 391.662 401.787 391.209 401.2C390.756 400.613 390.182 400.147 389.489 399.8C388.796 399.427 387.996 399.24 387.089 399.24ZM414.583 412.4C414.583 412.613 414.61 412.853 414.663 413.12C414.716 413.36 414.796 413.587 414.903 413.8C415.036 414.013 415.17 414.2 415.303 414.36C415.463 414.52 415.65 414.6 415.863 414.6V415H410.703V414.6C410.89 414.6 411.063 414.52 411.223 414.36C411.383 414.2 411.516 414.013 411.623 413.8C411.756 413.587 411.85 413.36 411.903 413.12C411.956 412.853 411.983 412.613 411.983 412.4V404.96C411.983 404 411.85 403.16 411.583 402.44C411.316 401.72 410.956 401.12 410.503 400.64C410.05 400.16 409.53 399.813 408.943 399.6C408.383 399.36 407.81 399.24 407.223 399.24C406.636 399.24 406.05 399.36 405.463 399.6C404.903 399.84 404.396 400.16 403.943 400.56C403.516 400.933 403.156 401.387 402.863 401.92C402.596 402.427 402.463 402.96 402.463 403.52V412.4C402.463 412.613 402.49 412.853 402.543 413.12C402.596 413.36 402.676 413.587 402.783 413.8C402.916 414.013 403.05 414.2 403.183 414.36C403.343 414.52 403.53 414.6 403.743 414.6V415H398.543V414.6C398.73 414.6 398.903 414.52 399.063 414.36C399.223 414.2 399.356 414.013 399.463 413.8C399.596 413.587 399.69 413.36 399.743 413.12C399.796 412.853 399.823 412.613 399.823 412.4V401.36C399.823 400.907 399.756 400.48 399.623 400.08C399.49 399.653 399.103 399.427 398.463 399.4V399.04L402.463 397.76V399.96C402.65 399.747 402.89 399.52 403.183 399.28C403.476 399.013 403.823 398.773 404.223 398.56C404.65 398.32 405.13 398.133 405.663 398C406.223 397.84 406.876 397.76 407.623 397.76C408.876 397.76 409.943 397.973 410.823 398.4C411.703 398.827 412.423 399.387 412.983 400.08C413.543 400.747 413.943 401.493 414.183 402.32C414.45 403.12 414.583 403.907 414.583 404.68V412.4ZM421.992 406.92C422.099 407.853 422.326 408.747 422.672 409.6C423.019 410.427 423.472 411.16 424.032 411.8C424.619 412.44 425.326 412.96 426.152 413.36C426.979 413.733 427.939 413.92 429.032 413.92C429.619 413.92 430.232 413.84 430.872 413.68C431.539 413.493 432.152 413.24 432.712 412.92C433.272 412.6 433.766 412.213 434.192 411.76C434.646 411.28 434.952 410.747 435.112 410.16H435.472V413.16C435.312 413.16 435.126 413.213 434.912 413.32C434.726 413.427 434.499 413.56 434.232 413.72C433.699 414.04 432.979 414.387 432.072 414.76C431.166 415.107 429.966 415.28 428.472 415.28C427.272 415.28 426.126 415.107 425.032 414.76C423.966 414.413 423.019 413.88 422.192 413.16C421.366 412.44 420.699 411.52 420.192 410.4C419.712 409.28 419.472 407.947 419.472 406.4C419.472 405.413 419.632 404.413 419.952 403.4C420.299 402.387 420.806 401.48 421.472 400.68C422.166 399.853 423.046 399.187 424.112 398.68C425.179 398.173 426.459 397.92 427.952 397.92C429.286 397.92 430.446 398.147 431.432 398.6C432.446 399.053 433.272 399.68 433.912 400.48C434.579 401.28 435.072 402.227 435.392 403.32C435.712 404.413 435.872 405.613 435.872 406.92H421.992ZM427.792 399.24C426.859 399.24 426.046 399.427 425.352 399.8C424.686 400.173 424.112 400.653 423.632 401.24C423.152 401.827 422.779 402.493 422.512 403.24C422.246 403.987 422.072 404.733 421.992 405.48H433.392C433.366 404.707 433.219 403.947 432.952 403.2C432.712 402.453 432.366 401.787 431.912 401.2C431.459 400.613 430.886 400.147 430.192 399.8C429.499 399.427 428.699 399.24 427.792 399.24ZM448.966 401.12C448.646 400.587 448.313 400.253 447.966 400.12C447.62 399.987 447.22 399.92 446.766 399.92C446.473 399.92 446.153 399.987 445.806 400.12C445.486 400.253 445.166 400.427 444.846 400.64C444.526 400.853 444.206 401.093 443.886 401.36C443.593 401.6 443.34 401.827 443.126 402.04V412.44C443.126 412.653 443.153 412.88 443.206 413.12C443.26 413.36 443.34 413.6 443.446 413.84C443.58 414.053 443.713 414.24 443.846 414.4C444.006 414.533 444.193 414.6 444.406 414.6V415H439.206V414.6C439.393 414.6 439.566 414.533 439.726 414.4C439.886 414.24 440.02 414.053 440.126 413.84C440.26 413.6 440.353 413.36 440.406 413.12C440.46 412.88 440.486 412.653 440.486 412.44V401.28C440.486 400.907 440.366 400.533 440.126 400.16C439.886 399.787 439.54 399.547 439.086 399.44V399.12L443.126 397.92V400.32C443.366 400.027 443.62 399.747 443.886 399.48C444.153 399.187 444.446 398.933 444.766 398.72C445.113 398.48 445.486 398.293 445.886 398.16C446.286 398 446.753 397.92 447.286 397.92C447.66 397.92 448.14 398 448.726 398.16C449.313 398.32 449.793 398.493 450.166 398.68L448.966 401.12ZM463.243 415V412.96L463.043 413.16C462.376 413.827 461.603 414.347 460.723 414.72C459.869 415.093 458.829 415.28 457.603 415.28C456.669 415.28 455.869 415.173 455.203 414.96C454.536 414.747 453.989 414.453 453.563 414.08C453.136 413.68 452.816 413.227 452.603 412.72C452.416 412.213 452.323 411.68 452.323 411.12C452.323 410.213 452.563 409.413 453.043 408.72C453.549 408.027 454.269 407.413 455.203 406.88C456.136 406.347 457.269 405.867 458.603 405.44C459.963 404.987 461.509 404.547 463.243 404.12C463.189 403.08 462.976 402.24 462.603 401.6C462.229 400.96 461.789 400.467 461.283 400.12C460.776 399.747 460.243 399.507 459.683 399.4C459.123 399.267 458.643 399.2 458.243 399.2C457.549 399.2 456.936 399.307 456.403 399.52C455.896 399.733 455.443 400.013 455.043 400.36C454.669 400.68 454.349 401.04 454.083 401.44C453.816 401.813 453.603 402.173 453.443 402.52H453.083V399.6C453.296 399.573 453.496 399.507 453.683 399.4C453.869 399.293 454.096 399.187 454.363 399.08C454.763 398.92 455.309 398.693 456.003 398.4C456.696 398.08 457.669 397.92 458.923 397.92C460.389 397.92 461.576 398.107 462.483 398.48C463.389 398.853 464.083 399.347 464.563 399.96C465.069 400.573 465.403 401.28 465.563 402.08C465.723 402.853 465.803 403.653 465.803 404.48V412.4C465.803 412.933 465.923 413.44 466.163 413.92C466.403 414.373 466.723 414.6 467.123 414.6V415H463.243ZM463.243 411.2V405.48L462.843 405.56C462.203 405.72 461.416 405.933 460.483 406.2C459.576 406.467 458.709 406.813 457.883 407.24C457.056 407.667 456.349 408.173 455.763 408.76C455.176 409.347 454.883 410.027 454.883 410.8C454.883 411.653 455.229 412.36 455.923 412.92C456.616 413.48 457.523 413.76 458.643 413.76C459.523 413.76 460.296 413.573 460.963 413.2C461.629 412.8 462.243 412.293 462.803 411.68L463.243 411.2ZM474.884 399.56V409.2C474.884 409.893 474.897 410.52 474.924 411.08C474.951 411.64 475.017 412.107 475.124 412.48C475.231 412.853 475.391 413.147 475.604 413.36C475.817 413.547 476.111 413.64 476.484 413.64C477.044 413.64 477.564 413.373 478.044 412.84C478.551 412.307 478.871 411.667 479.004 410.92H479.364V413.84C479.124 413.84 478.924 413.92 478.764 414.08C478.551 414.267 478.244 414.467 477.844 414.68C477.471 414.893 476.897 415 476.124 415C475.164 415 474.417 414.813 473.884 414.44C473.351 414.067 472.964 413.573 472.724 412.96C472.484 412.347 472.337 411.667 472.284 410.92C472.257 410.173 472.244 409.413 472.244 408.64V399.56H470.004V398.2H472.244V394.64C472.244 394.187 472.177 393.773 472.044 393.4C471.937 393 471.551 392.787 470.884 392.76V392.36L474.884 391.08V398.2H479.364V399.56H474.884ZM484.57 406.92C484.677 407.853 484.904 408.747 485.25 409.6C485.597 410.427 486.05 411.16 486.61 411.8C487.197 412.44 487.904 412.96 488.73 413.36C489.557 413.733 490.517 413.92 491.61 413.92C492.197 413.92 492.81 413.84 493.45 413.68C494.117 413.493 494.73 413.24 495.29 412.92C495.85 412.6 496.344 412.213 496.77 411.76C497.224 411.28 497.53 410.747 497.69 410.16H498.05V413.16C497.89 413.16 497.704 413.213 497.49 413.32C497.304 413.427 497.077 413.56 496.81 413.72C496.277 414.04 495.557 414.387 494.65 414.76C493.744 415.107 492.544 415.28 491.05 415.28C489.85 415.28 488.704 415.107 487.61 414.76C486.544 414.413 485.597 413.88 484.77 413.16C483.944 412.44 483.277 411.52 482.77 410.4C482.29 409.28 482.05 407.947 482.05 406.4C482.05 405.413 482.21 404.413 482.53 403.4C482.877 402.387 483.384 401.48 484.05 400.68C484.744 399.853 485.624 399.187 486.69 398.68C487.757 398.173 489.037 397.92 490.53 397.92C491.864 397.92 493.024 398.147 494.01 398.6C495.024 399.053 495.85 399.68 496.49 400.48C497.157 401.28 497.65 402.227 497.97 403.32C498.29 404.413 498.45 405.613 498.45 406.92H484.57ZM490.37 399.24C489.437 399.24 488.624 399.427 487.93 399.8C487.264 400.173 486.69 400.653 486.21 401.24C485.73 401.827 485.357 402.493 485.09 403.24C484.824 403.987 484.65 404.733 484.57 405.48H495.97C495.944 404.707 495.797 403.947 495.53 403.2C495.29 402.453 494.944 401.787 494.49 401.2C494.037 400.613 493.464 400.147 492.77 399.8C492.077 399.427 491.277 399.24 490.37 399.24ZM518.575 420.72C518.202 421.84 517.722 422.6 517.135 423C516.575 423.4 515.988 423.6 515.375 423.6C514.975 423.6 514.615 423.547 514.295 423.44C514.002 423.333 513.735 423.2 513.495 423.04C513.282 422.907 513.108 422.773 512.975 422.64C512.842 422.507 512.762 422.4 512.735 422.32L514.055 419.08C514.188 419.56 514.322 419.92 514.455 420.16C514.588 420.427 514.775 420.667 515.015 420.88C515.255 421.093 515.548 421.2 515.895 421.2C516.535 421.2 517.042 420.733 517.415 419.8L519.375 414.88L512.935 400.32C512.802 400 512.575 399.64 512.255 399.24C511.962 398.813 511.548 398.6 511.015 398.6V398.2H516.295V398.6C516.188 398.6 516.055 398.693 515.895 398.88C515.735 399.067 515.655 399.307 515.655 399.6C515.655 399.84 515.708 400.053 515.815 400.24L520.735 411.56L525.455 400C525.535 399.813 525.575 399.64 525.575 399.48C525.575 399.213 525.482 399 525.295 398.84C525.135 398.68 524.962 398.6 524.775 398.6V398.2H528.655V398.6C528.228 398.6 527.855 398.787 527.535 399.16C527.242 399.507 527.002 399.907 526.815 400.36L518.575 420.72ZM539.52 415.28C538.187 415.28 536.987 415.067 535.92 414.64C534.854 414.187 533.934 413.587 533.16 412.84C532.414 412.067 531.827 411.16 531.4 410.12C531 409.08 530.8 407.947 530.8 406.72C530.8 405.413 531.027 404.227 531.48 403.16C531.934 402.067 532.56 401.133 533.36 400.36C534.16 399.587 535.107 398.987 536.2 398.56C537.294 398.133 538.48 397.92 539.76 397.92C541.04 397.92 542.214 398.133 543.28 398.56C544.347 398.96 545.267 399.533 546.04 400.28C546.814 401.027 547.414 401.92 547.84 402.96C548.267 403.973 548.48 405.093 548.48 406.32C548.48 407.467 548.28 408.587 547.88 409.68C547.507 410.747 546.934 411.693 546.16 412.52C545.414 413.347 544.48 414.013 543.36 414.52C542.267 415.027 540.987 415.28 539.52 415.28ZM539.28 399.24C538.32 399.293 537.467 399.533 536.72 399.96C536 400.36 535.387 400.893 534.88 401.56C534.4 402.2 534.027 402.933 533.76 403.76C533.52 404.587 533.4 405.427 533.4 406.28C533.4 407.267 533.547 408.227 533.84 409.16C534.16 410.067 534.6 410.88 535.16 411.6C535.747 412.32 536.44 412.893 537.24 413.32C538.04 413.747 538.934 413.96 539.92 413.96C540.907 413.96 541.774 413.747 542.52 413.32C543.294 412.893 543.934 412.347 544.44 411.68C544.947 410.987 545.32 410.213 545.56 409.36C545.827 408.507 545.96 407.653 545.96 406.8C545.96 405.92 545.827 405.04 545.56 404.16C545.294 403.253 544.88 402.44 544.32 401.72C543.76 400.973 543.054 400.373 542.2 399.92C541.374 399.467 540.4 399.24 539.28 399.24ZM567.898 412.4C567.898 412.587 567.924 412.813 567.978 413.08C568.031 413.32 568.098 413.56 568.178 413.8C568.284 414.013 568.418 414.2 568.578 414.36C568.738 414.52 568.924 414.6 569.138 414.6V415H565.258V412.8C564.858 413.387 564.271 413.96 563.498 414.52C562.724 415.08 561.724 415.36 560.498 415.36C558.951 415.36 557.724 415.093 556.818 414.56C555.911 414.027 555.218 413.347 554.738 412.52C554.258 411.693 553.951 410.8 553.818 409.84C553.684 408.853 553.618 407.933 553.618 407.08V401.36C553.618 401.12 553.604 400.893 553.578 400.68C553.578 400.44 553.524 400.227 553.418 400.04C553.338 399.853 553.204 399.707 553.018 399.6C552.831 399.467 552.564 399.4 552.218 399.4V399.04L556.258 397.76V407.96C556.258 409.987 556.698 411.48 557.578 412.44C558.458 413.4 559.538 413.88 560.818 413.88C561.511 413.88 562.124 413.733 562.658 413.44C563.218 413.12 563.684 412.747 564.058 412.32C564.458 411.893 564.751 411.453 564.938 411C565.151 410.547 565.258 410.173 565.258 409.88V401.36C565.258 401.12 565.244 400.893 565.218 400.68C565.218 400.44 565.164 400.227 565.058 400.04C564.978 399.853 564.844 399.707 564.658 399.6C564.471 399.467 564.204 399.4 563.858 399.4V399.04L567.898 397.76V412.4ZM582.794 401.12C582.474 400.587 582.141 400.253 581.794 400.12C581.448 399.987 581.048 399.92 580.594 399.92C580.301 399.92 579.981 399.987 579.634 400.12C579.314 400.253 578.994 400.427 578.674 400.64C578.354 400.853 578.034 401.093 577.714 401.36C577.421 401.6 577.168 401.827 576.954 402.04V412.44C576.954 412.653 576.981 412.88 577.034 413.12C577.088 413.36 577.168 413.6 577.274 413.84C577.408 414.053 577.541 414.24 577.674 414.4C577.834 414.533 578.021 414.6 578.234 414.6V415H573.034V414.6C573.221 414.6 573.394 414.533 573.554 414.4C573.714 414.24 573.848 414.053 573.954 413.84C574.088 413.6 574.181 413.36 574.234 413.12C574.288 412.88 574.314 412.653 574.314 412.44V401.28C574.314 400.907 574.194 400.533 573.954 400.16C573.714 399.787 573.368 399.547 572.914 399.44V399.12L576.954 397.92V400.32C577.194 400.027 577.448 399.747 577.714 399.48C577.981 399.187 578.274 398.933 578.594 398.72C578.941 398.48 579.314 398.293 579.714 398.16C580.114 398 580.581 397.92 581.114 397.92C581.488 397.92 581.968 398 582.554 398.16C583.141 398.32 583.621 398.493 583.994 398.68L582.794 401.12ZM612.742 412.4C612.742 412.587 612.768 412.813 612.822 413.08C612.875 413.32 612.942 413.56 613.022 413.8C613.128 414.013 613.262 414.2 613.422 414.36C613.582 414.52 613.768 414.6 613.982 414.6V415H610.102V412.8C609.702 413.387 609.115 413.96 608.342 414.52C607.568 415.08 606.568 415.36 605.342 415.36C603.795 415.36 602.568 415.093 601.662 414.56C600.755 414.027 600.062 413.347 599.582 412.52C599.102 411.693 598.795 410.8 598.662 409.84C598.528 408.853 598.462 407.933 598.462 407.08V401.36C598.462 401.12 598.448 400.893 598.422 400.68C598.422 400.44 598.368 400.227 598.262 400.04C598.182 399.853 598.048 399.707 597.862 399.6C597.675 399.467 597.408 399.4 597.062 399.4V399.04L601.102 397.76V407.96C601.102 409.987 601.542 411.48 602.422 412.44C603.302 413.4 604.382 413.88 605.662 413.88C606.355 413.88 606.968 413.733 607.502 413.44C608.062 413.12 608.528 412.747 608.902 412.32C609.302 411.893 609.595 411.453 609.782 411C609.995 410.547 610.102 410.173 610.102 409.88V401.36C610.102 401.12 610.088 400.893 610.062 400.68C610.062 400.44 610.008 400.227 609.902 400.04C609.822 399.853 609.688 399.707 609.502 399.6C609.315 399.467 609.048 399.4 608.702 399.4V399.04L612.742 397.76V412.4ZM633.958 412.4C633.958 412.613 633.985 412.853 634.038 413.12C634.091 413.36 634.171 413.587 634.278 413.8C634.411 414.013 634.545 414.2 634.678 414.36C634.838 414.52 635.025 414.6 635.238 414.6V415H630.078V414.6C630.265 414.6 630.438 414.52 630.598 414.36C630.758 414.2 630.891 414.013 630.998 413.8C631.131 413.587 631.225 413.36 631.278 413.12C631.331 412.853 631.358 412.613 631.358 412.4V404.96C631.358 404 631.225 403.16 630.958 402.44C630.691 401.72 630.331 401.12 629.878 400.64C629.425 400.16 628.905 399.813 628.318 399.6C627.758 399.36 627.185 399.24 626.598 399.24C626.011 399.24 625.425 399.36 624.838 399.6C624.278 399.84 623.771 400.16 623.318 400.56C622.891 400.933 622.531 401.387 622.238 401.92C621.971 402.427 621.838 402.96 621.838 403.52V412.4C621.838 412.613 621.865 412.853 621.918 413.12C621.971 413.36 622.051 413.587 622.158 413.8C622.291 414.013 622.425 414.2 622.558 414.36C622.718 414.52 622.905 414.6 623.118 414.6V415H617.918V414.6C618.105 414.6 618.278 414.52 618.438 414.36C618.598 414.2 618.731 414.013 618.838 413.8C618.971 413.587 619.065 413.36 619.118 413.12C619.171 412.853 619.198 412.613 619.198 412.4V401.36C619.198 400.907 619.131 400.48 618.998 400.08C618.865 399.653 618.478 399.427 617.838 399.4V399.04L621.838 397.76V399.96C622.025 399.747 622.265 399.52 622.558 399.28C622.851 399.013 623.198 398.773 623.598 398.56C624.025 398.32 624.505 398.133 625.038 398C625.598 397.84 626.251 397.76 626.998 397.76C628.251 397.76 629.318 397.973 630.198 398.4C631.078 398.827 631.798 399.387 632.358 400.08C632.918 400.747 633.318 401.493 633.558 402.32C633.825 403.12 633.958 403.907 633.958 404.68V412.4ZM639.727 415V414.6C639.941 414.6 640.127 414.52 640.287 414.36C640.447 414.2 640.581 414.013 640.687 413.8C640.794 413.587 640.874 413.36 640.927 413.12C640.981 412.853 641.007 412.613 641.007 412.4V401.32C641.007 400.867 640.941 400.44 640.807 400.04C640.674 399.613 640.287 399.387 639.647 399.36V399L643.647 397.72V412.4C643.647 412.613 643.674 412.853 643.727 413.12C643.781 413.36 643.861 413.587 643.967 413.8C644.074 414.013 644.207 414.2 644.367 414.36C644.527 414.52 644.714 414.6 644.927 414.6V415H639.727ZM639.927 393.88C639.927 393.347 640.101 392.893 640.447 392.52C640.821 392.147 641.274 391.96 641.807 391.96C642.341 391.96 642.794 392.147 643.167 392.52C643.541 392.893 643.727 393.347 643.727 393.88C643.727 394.413 643.541 394.853 643.167 395.2C642.794 395.547 642.341 395.72 641.807 395.72C641.274 395.72 640.821 395.547 640.447 395.2C640.101 394.853 639.927 394.413 639.927 393.88ZM660.686 423C660.9 423 661.086 422.92 661.246 422.76C661.406 422.6 661.54 422.413 661.646 422.2C661.753 421.987 661.833 421.747 661.886 421.48C661.94 421.24 661.966 421.013 661.966 420.8V413.24C661.486 413.853 660.9 414.347 660.206 414.72C659.513 415.093 658.566 415.28 657.366 415.28C655.953 415.28 654.713 415.04 653.646 414.56C652.606 414.053 651.74 413.387 651.046 412.56C650.353 411.733 649.833 410.8 649.486 409.76C649.166 408.72 649.006 407.653 649.006 406.56C649.006 405.493 649.193 404.44 649.566 403.4C649.966 402.36 650.513 401.44 651.206 400.64C651.926 399.813 652.793 399.16 653.806 398.68C654.846 398.173 656.006 397.92 657.286 397.92C658.22 397.92 659.14 398.147 660.046 398.6C660.98 399.027 661.713 399.533 662.246 400.12L664.606 397.6V420.8C664.606 421.013 664.633 421.24 664.686 421.48C664.74 421.747 664.82 421.987 664.926 422.2C665.033 422.413 665.166 422.6 665.326 422.76C665.486 422.92 665.673 423 665.886 423V423.4H660.686V423ZM657.606 413.92C658.166 413.92 658.7 413.813 659.206 413.6C659.74 413.36 660.206 413.053 660.606 412.68C661.033 412.28 661.366 411.827 661.606 411.32C661.846 410.787 661.966 410.213 661.966 409.6V404.16C661.966 403.387 661.82 402.707 661.526 402.12C661.233 401.507 660.86 401 660.406 400.6C659.953 400.173 659.433 399.853 658.846 399.64C658.26 399.427 657.673 399.32 657.086 399.32C656.206 399.32 655.42 399.52 654.726 399.92C654.06 400.293 653.486 400.8 653.006 401.44C652.553 402.08 652.206 402.8 651.966 403.6C651.726 404.4 651.606 405.213 651.606 406.04C651.606 406.973 651.74 407.907 652.006 408.84C652.273 409.773 652.66 410.613 653.166 411.36C653.7 412.08 654.326 412.68 655.046 413.16C655.793 413.64 656.646 413.893 657.606 413.92ZM685.593 412.4C685.593 412.587 685.62 412.813 685.673 413.08C685.726 413.32 685.793 413.56 685.873 413.8C685.98 414.013 686.113 414.2 686.273 414.36C686.433 414.52 686.62 414.6 686.833 414.6V415H682.953V412.8C682.553 413.387 681.966 413.96 681.193 414.52C680.42 415.08 679.42 415.36 678.193 415.36C676.646 415.36 675.42 415.093 674.513 414.56C673.606 414.027 672.913 413.347 672.433 412.52C671.953 411.693 671.646 410.8 671.513 409.84C671.38 408.853 671.313 407.933 671.313 407.08V401.36C671.313 401.12 671.3 400.893 671.273 400.68C671.273 400.44 671.22 400.227 671.113 400.04C671.033 399.853 670.9 399.707 670.713 399.6C670.526 399.467 670.26 399.4 669.913 399.4V399.04L673.953 397.76V407.96C673.953 409.987 674.393 411.48 675.273 412.44C676.153 413.4 677.233 413.88 678.513 413.88C679.206 413.88 679.82 413.733 680.353 413.44C680.913 413.12 681.38 412.747 681.753 412.32C682.153 411.893 682.446 411.453 682.633 411C682.846 410.547 682.953 410.173 682.953 409.88V401.36C682.953 401.12 682.94 400.893 682.913 400.68C682.913 400.44 682.86 400.227 682.753 400.04C682.673 399.853 682.54 399.707 682.353 399.6C682.166 399.467 681.9 399.4 681.553 399.4V399.04L685.593 397.76V412.4ZM692.93 406.92C693.036 407.853 693.263 408.747 693.61 409.6C693.956 410.427 694.41 411.16 694.97 411.8C695.556 412.44 696.263 412.96 697.09 413.36C697.916 413.733 698.876 413.92 699.97 413.92C700.556 413.92 701.17 413.84 701.81 413.68C702.476 413.493 703.09 413.24 703.65 412.92C704.21 412.6 704.703 412.213 705.13 411.76C705.583 411.28 705.89 410.747 706.05 410.16H706.41V413.16C706.25 413.16 706.063 413.213 705.85 413.32C705.663 413.427 705.436 413.56 705.17 413.72C704.636 414.04 703.916 414.387 703.01 414.76C702.103 415.107 700.903 415.28 699.41 415.28C698.21 415.28 697.063 415.107 695.97 414.76C694.903 414.413 693.956 413.88 693.13 413.16C692.303 412.44 691.636 411.52 691.13 410.4C690.65 409.28 690.41 407.947 690.41 406.4C690.41 405.413 690.57 404.413 690.89 403.4C691.236 402.387 691.743 401.48 692.41 400.68C693.103 399.853 693.983 399.187 695.05 398.68C696.116 398.173 697.396 397.92 698.89 397.92C700.223 397.92 701.383 398.147 702.37 398.6C703.383 399.053 704.21 399.68 704.85 400.48C705.516 401.28 706.01 402.227 706.33 403.32C706.65 404.413 706.81 405.613 706.81 406.92H692.93ZM698.73 399.24C697.796 399.24 696.983 399.427 696.29 399.8C695.623 400.173 695.05 400.653 694.57 401.24C694.09 401.827 693.716 402.493 693.45 403.24C693.183 403.987 693.01 404.733 692.93 405.48H704.33C704.303 404.707 704.156 403.947 703.89 403.2C703.65 402.453 703.303 401.787 702.85 401.2C702.396 400.613 701.823 400.147 701.13 399.8C700.436 399.427 699.636 399.24 698.73 399.24ZM736.734 407.92C736.734 409.253 736.468 410.4 735.934 411.36C735.401 412.293 734.708 413.053 733.854 413.64C733.028 414.227 732.081 414.653 731.014 414.92C729.974 415.187 728.934 415.32 727.894 415.32C726.828 415.32 725.908 415.213 725.134 415C724.361 414.787 723.654 414.587 723.014 414.4C722.588 414.267 722.201 414.16 721.854 414.08C721.508 413.973 721.161 413.92 720.814 413.92V409.36H721.214C721.214 410.373 721.468 411.187 721.974 411.8C722.508 412.387 723.121 412.84 723.814 413.16C724.508 413.48 725.201 413.693 725.894 413.8C726.588 413.88 727.094 413.92 727.414 413.92C728.561 413.92 729.548 413.76 730.374 413.44C731.201 413.093 731.881 412.653 732.414 412.12C732.948 411.56 733.334 410.947 733.574 410.28C733.841 409.613 733.974 408.933 733.974 408.24C733.974 407.36 733.788 406.627 733.414 406.04C733.041 405.427 732.548 404.893 731.934 404.44C731.348 403.987 730.668 403.6 729.894 403.28C729.121 402.96 728.334 402.64 727.534 402.32C726.628 401.973 725.734 401.613 724.854 401.24C723.974 400.867 723.188 400.413 722.494 399.88C721.801 399.32 721.241 398.667 720.814 397.92C720.388 397.147 720.174 396.2 720.174 395.08C720.174 393.907 720.401 392.893 720.854 392.04C721.308 391.16 721.908 390.44 722.654 389.88C723.428 389.32 724.294 388.907 725.254 388.64C726.241 388.347 727.241 388.2 728.254 388.2C728.948 388.2 729.601 388.253 730.214 388.36C730.828 388.44 731.414 388.547 731.974 388.68C732.428 388.787 732.868 388.88 733.294 388.96C733.721 389.013 734.134 389.04 734.534 389.04V393.16H734.134C734.081 391.773 733.534 390.84 732.494 390.36C731.454 389.853 730.014 389.6 728.174 389.6C727.108 389.6 726.228 389.787 725.534 390.16C724.868 390.507 724.334 390.947 723.934 391.48C723.534 391.987 723.254 392.547 723.094 393.16C722.961 393.747 722.894 394.267 722.894 394.72C722.894 395.467 723.054 396.107 723.374 396.64C723.721 397.173 724.174 397.64 724.734 398.04C725.294 398.44 725.934 398.8 726.654 399.12C727.401 399.44 728.174 399.747 728.974 400.04C729.881 400.387 730.801 400.76 731.734 401.16C732.668 401.56 733.494 402.053 734.214 402.64C734.961 403.227 735.561 403.947 736.014 404.8C736.494 405.653 736.734 406.693 736.734 407.92ZM748.664 397.92C750.104 397.92 751.344 398.173 752.384 398.68C753.45 399.16 754.33 399.8 755.024 400.6C755.744 401.4 756.277 402.32 756.624 403.36C756.97 404.4 757.144 405.467 757.144 406.56C757.144 407.627 756.97 408.68 756.624 409.72C756.304 410.76 755.797 411.693 755.104 412.52C754.437 413.347 753.597 414.013 752.584 414.52C751.57 415.027 750.37 415.28 748.984 415.28C748.157 415.28 747.304 415.067 746.424 414.64C745.57 414.187 744.797 413.627 744.104 412.96V420.8C744.104 421.013 744.13 421.24 744.184 421.48C744.237 421.747 744.317 421.987 744.424 422.2C744.557 422.413 744.69 422.6 744.824 422.76C744.984 422.92 745.17 423 745.384 423V423.4H740.184V423C740.37 423 740.544 422.92 740.704 422.76C740.864 422.6 740.997 422.413 741.104 422.2C741.237 421.987 741.33 421.747 741.384 421.48C741.437 421.24 741.464 421.013 741.464 420.8V400.56C741.464 400.32 741.45 400.093 741.424 399.88C741.424 399.64 741.384 399.44 741.304 399.28C741.224 399.093 741.09 398.947 740.904 398.84C740.744 398.707 740.504 398.627 740.184 398.6V398.2H744.104V399.96C744.637 399.32 745.277 398.827 746.024 398.48C746.797 398.107 747.677 397.92 748.664 397.92ZM749.024 413.92C749.957 413.893 750.77 413.68 751.464 413.28C752.157 412.88 752.73 412.36 753.184 411.72C753.637 411.08 753.97 410.373 754.184 409.6C754.397 408.8 754.504 407.973 754.504 407.12C754.504 406.16 754.37 405.213 754.104 404.28C753.837 403.347 753.45 402.52 752.944 401.8C752.437 401.053 751.81 400.453 751.064 400C750.344 399.52 749.517 399.28 748.584 399.28C748.024 399.28 747.464 399.387 746.904 399.6C746.37 399.813 745.89 400.12 745.464 400.52C745.064 400.92 744.73 401.4 744.464 401.96C744.224 402.493 744.104 403.093 744.104 403.76V409C744.104 409.72 744.25 410.387 744.544 411C744.837 411.587 745.21 412.107 745.664 412.56C746.144 412.987 746.677 413.32 747.264 413.56C747.85 413.8 748.437 413.92 749.024 413.92ZM769.13 415.28C767.796 415.28 766.596 415.067 765.53 414.64C764.463 414.187 763.543 413.587 762.77 412.84C762.023 412.067 761.436 411.16 761.01 410.12C760.61 409.08 760.41 407.947 760.41 406.72C760.41 405.413 760.636 404.227 761.09 403.16C761.543 402.067 762.17 401.133 762.97 400.36C763.77 399.587 764.716 398.987 765.81 398.56C766.903 398.133 768.09 397.92 769.37 397.92C770.65 397.92 771.823 398.133 772.89 398.56C773.956 398.96 774.876 399.533 775.65 400.28C776.423 401.027 777.023 401.92 777.45 402.96C777.876 403.973 778.09 405.093 778.09 406.32C778.09 407.467 777.89 408.587 777.49 409.68C777.116 410.747 776.543 411.693 775.77 412.52C775.023 413.347 774.09 414.013 772.97 414.52C771.876 415.027 770.596 415.28 769.13 415.28ZM768.89 399.24C767.93 399.293 767.076 399.533 766.33 399.96C765.61 400.36 764.996 400.893 764.49 401.56C764.01 402.2 763.636 402.933 763.37 403.76C763.13 404.587 763.01 405.427 763.01 406.28C763.01 407.267 763.156 408.227 763.45 409.16C763.77 410.067 764.21 410.88 764.77 411.6C765.356 412.32 766.05 412.893 766.85 413.32C767.65 413.747 768.543 413.96 769.53 413.96C770.516 413.96 771.383 413.747 772.13 413.32C772.903 412.893 773.543 412.347 774.05 411.68C774.556 410.987 774.93 410.213 775.17 409.36C775.436 408.507 775.57 407.653 775.57 406.8C775.57 405.92 775.436 405.04 775.17 404.16C774.903 403.253 774.49 402.44 773.93 401.72C773.37 400.973 772.663 400.373 771.81 399.92C770.983 399.467 770.01 399.24 768.89 399.24ZM785.587 399.56V409.2C785.587 409.893 785.601 410.52 785.627 411.08C785.654 411.64 785.721 412.107 785.827 412.48C785.934 412.853 786.094 413.147 786.307 413.36C786.521 413.547 786.814 413.64 787.187 413.64C787.747 413.64 788.267 413.373 788.747 412.84C789.254 412.307 789.574 411.667 789.707 410.92H790.067V413.84C789.827 413.84 789.627 413.92 789.467 414.08C789.254 414.267 788.947 414.467 788.547 414.68C788.174 414.893 787.601 415 786.827 415C785.867 415 785.121 414.813 784.587 414.44C784.054 414.067 783.667 413.573 783.427 412.96C783.187 412.347 783.041 411.667 782.987 410.92C782.961 410.173 782.947 409.413 782.947 408.64V399.56H780.707V398.2H782.947V394.64C782.947 394.187 782.881 393.773 782.747 393.4C782.641 393 782.254 392.787 781.587 392.76V392.36L785.587 391.08V398.2H790.067V399.56H785.587ZM793.633 415V414.6C793.847 414.6 794.033 414.52 794.193 414.36C794.353 414.2 794.487 414.013 794.593 413.8C794.7 413.587 794.78 413.36 794.833 413.12C794.887 412.853 794.913 412.613 794.913 412.4V401.32C794.913 400.867 794.847 400.44 794.713 400.04C794.58 399.613 794.193 399.387 793.553 399.36V399L797.553 397.72V412.4C797.553 412.613 797.58 412.853 797.633 413.12C797.687 413.36 797.767 413.587 797.873 413.8C797.98 414.013 798.113 414.2 798.273 414.36C798.433 414.52 798.62 414.6 798.833 414.6V415H793.633ZM793.833 393.88C793.833 393.347 794.007 392.893 794.353 392.52C794.727 392.147 795.18 391.96 795.713 391.96C796.247 391.96 796.7 392.147 797.073 392.52C797.447 392.893 797.633 393.347 797.633 393.88C797.633 394.413 797.447 394.853 797.073 395.2C796.7 395.547 796.247 395.72 795.713 395.72C795.18 395.72 794.727 395.547 794.353 395.2C794.007 394.853 793.833 394.413 793.833 393.88ZM806.833 399.56V412.4C806.833 412.613 806.859 412.853 806.913 413.12C806.966 413.36 807.046 413.587 807.153 413.8C807.286 414.013 807.419 414.2 807.553 414.36C807.713 414.52 807.899 414.6 808.113 414.6V415H802.913V414.6C803.099 414.6 803.273 414.52 803.433 414.36C803.593 414.2 803.726 414.013 803.833 413.8C803.966 413.587 804.059 413.36 804.113 413.12C804.166 412.853 804.193 412.613 804.193 412.4V399.56H802.193V398.2H804.193V394.96C804.193 394.133 804.219 393.333 804.273 392.56C804.326 391.787 804.486 391.093 804.753 390.48C805.019 389.867 805.419 389.373 805.953 389C806.513 388.627 807.273 388.44 808.233 388.44C808.766 388.44 809.219 388.507 809.593 388.64C809.993 388.747 810.326 388.88 810.593 389.04C810.886 389.173 811.126 389.307 811.312 389.44C811.499 389.547 811.659 389.6 811.793 389.6V392.52H811.433C811.299 391.747 810.953 391.107 810.393 390.6C809.833 390.067 809.273 389.8 808.713 389.8C807.939 389.8 807.433 390.213 807.192 391.04C806.953 391.84 806.833 392.96 806.833 394.4V398.2H811.353V399.56H806.833ZM820.723 420.72C820.35 421.84 819.87 422.6 819.283 423C818.723 423.4 818.137 423.6 817.523 423.6C817.123 423.6 816.763 423.547 816.443 423.44C816.15 423.333 815.883 423.2 815.643 423.04C815.43 422.907 815.257 422.773 815.123 422.64C814.99 422.507 814.91 422.4 814.883 422.32L816.203 419.08C816.337 419.56 816.47 419.92 816.603 420.16C816.737 420.427 816.923 420.667 817.163 420.88C817.403 421.093 817.697 421.2 818.043 421.2C818.683 421.2 819.19 420.733 819.563 419.8L821.523 414.88L815.083 400.32C814.95 400 814.723 399.64 814.403 399.24C814.11 398.813 813.697 398.6 813.163 398.6V398.2H818.443V398.6C818.337 398.6 818.203 398.693 818.043 398.88C817.883 399.067 817.803 399.307 817.803 399.6C817.803 399.84 817.857 400.053 817.963 400.24L822.883 411.56L827.603 400C827.683 399.813 827.723 399.64 827.723 399.48C827.723 399.213 827.63 399 827.443 398.84C827.283 398.68 827.11 398.6 826.923 398.6V398.2H830.803V398.6C830.377 398.6 830.003 398.787 829.683 399.16C829.39 399.507 829.15 399.907 828.963 400.36L820.723 420.72ZM858.419 413.56C858.206 413.56 858.006 413.613 857.819 413.72C857.633 413.8 857.419 413.907 857.179 414.04C856.726 414.307 856.153 414.587 855.459 414.88C854.766 415.147 853.859 415.28 852.739 415.28C851.379 415.28 850.113 415.067 848.939 414.64C847.793 414.187 846.793 413.573 845.939 412.8C845.113 412 844.459 411.08 843.979 410.04C843.526 408.973 843.299 407.827 843.299 406.6C843.299 405.453 843.499 404.36 843.899 403.32C844.326 402.28 844.926 401.36 845.699 400.56C846.473 399.76 847.419 399.12 848.539 398.64C849.686 398.16 850.979 397.92 852.419 397.92C853.406 397.92 854.206 398.04 854.819 398.28C855.433 398.493 855.953 398.707 856.379 398.92C856.619 399.053 856.846 399.16 857.059 399.24C857.299 399.32 857.539 399.36 857.779 399.36V402.4H857.379C857.246 401.893 857.006 401.453 856.659 401.08C856.313 400.68 855.913 400.347 855.459 400.08C855.006 399.813 854.513 399.613 853.979 399.48C853.446 399.347 852.926 399.28 852.419 399.28C851.326 399.28 850.366 399.48 849.539 399.88C848.713 400.253 848.033 400.76 847.499 401.4C846.966 402.013 846.566 402.72 846.299 403.52C846.033 404.32 845.899 405.147 845.899 406C845.899 406.987 846.059 407.96 846.379 408.92C846.699 409.853 847.153 410.693 847.739 411.44C848.353 412.187 849.086 412.787 849.939 413.24C850.793 413.693 851.753 413.92 852.819 413.92C853.566 413.92 854.246 413.813 854.859 413.6C855.499 413.387 856.033 413.107 856.459 412.76C856.913 412.413 857.273 412.04 857.539 411.64C857.806 411.213 857.966 410.813 858.019 410.44H858.419V413.56ZM869.481 415.28C868.148 415.28 866.948 415.067 865.881 414.64C864.815 414.187 863.895 413.587 863.121 412.84C862.375 412.067 861.788 411.16 861.361 410.12C860.961 409.08 860.761 407.947 860.761 406.72C860.761 405.413 860.988 404.227 861.441 403.16C861.895 402.067 862.521 401.133 863.321 400.36C864.121 399.587 865.068 398.987 866.161 398.56C867.255 398.133 868.441 397.92 869.721 397.92C871.001 397.92 872.175 398.133 873.241 398.56C874.308 398.96 875.228 399.533 876.001 400.28C876.775 401.027 877.375 401.92 877.801 402.96C878.228 403.973 878.441 405.093 878.441 406.32C878.441 407.467 878.241 408.587 877.841 409.68C877.468 410.747 876.895 411.693 876.121 412.52C875.375 413.347 874.441 414.013 873.321 414.52C872.228 415.027 870.948 415.28 869.481 415.28ZM869.241 399.24C868.281 399.293 867.428 399.533 866.681 399.96C865.961 400.36 865.348 400.893 864.841 401.56C864.361 402.2 863.988 402.933 863.721 403.76C863.481 404.587 863.361 405.427 863.361 406.28C863.361 407.267 863.508 408.227 863.801 409.16C864.121 410.067 864.561 410.88 865.121 411.6C865.708 412.32 866.401 412.893 867.201 413.32C868.001 413.747 868.895 413.96 869.881 413.96C870.868 413.96 871.735 413.747 872.481 413.32C873.255 412.893 873.895 412.347 874.401 411.68C874.908 410.987 875.281 410.213 875.521 409.36C875.788 408.507 875.921 407.653 875.921 406.8C875.921 405.92 875.788 405.04 875.521 404.16C875.255 403.253 874.841 402.44 874.281 401.72C873.721 400.973 873.015 400.373 872.161 399.92C871.335 399.467 870.361 399.24 869.241 399.24ZM882.179 415V414.6C882.392 414.6 882.579 414.52 882.739 414.36C882.899 414.2 883.032 414.013 883.139 413.8C883.272 413.587 883.365 413.36 883.419 413.12C883.472 412.853 883.499 412.613 883.499 412.4V391.92C883.499 391.467 883.432 391.04 883.299 390.64C883.165 390.24 882.765 390.027 882.099 390V389.6L886.139 388.36V412.4C886.139 412.613 886.165 412.853 886.219 413.12C886.272 413.36 886.352 413.587 886.459 413.8C886.592 414.013 886.725 414.2 886.859 414.36C887.019 414.52 887.205 414.6 887.419 414.6V415H882.179ZM891.437 415V414.6C891.65 414.6 891.837 414.52 891.997 414.36C892.157 414.2 892.29 414.013 892.397 413.8C892.53 413.587 892.623 413.36 892.677 413.12C892.73 412.853 892.757 412.613 892.757 412.4V391.92C892.757 391.467 892.69 391.04 892.557 390.64C892.423 390.24 892.023 390.027 891.357 390V389.6L895.397 388.36V412.4C895.397 412.613 895.423 412.853 895.477 413.12C895.53 413.36 895.61 413.587 895.717 413.8C895.85 414.013 895.983 414.2 896.117 414.36C896.277 414.52 896.463 414.6 896.677 414.6V415H891.437ZM911.094 415V412.96L910.894 413.16C910.228 413.827 909.454 414.347 908.574 414.72C907.721 415.093 906.681 415.28 905.454 415.28C904.521 415.28 903.721 415.173 903.054 414.96C902.388 414.747 901.841 414.453 901.414 414.08C900.988 413.68 900.668 413.227 900.454 412.72C900.268 412.213 900.174 411.68 900.174 411.12C900.174 410.213 900.414 409.413 900.894 408.72C901.401 408.027 902.121 407.413 903.054 406.88C903.988 406.347 905.121 405.867 906.454 405.44C907.814 404.987 909.361 404.547 911.094 404.12C911.041 403.08 910.828 402.24 910.454 401.6C910.081 400.96 909.641 400.467 909.134 400.12C908.628 399.747 908.094 399.507 907.534 399.4C906.974 399.267 906.494 399.2 906.094 399.2C905.401 399.2 904.788 399.307 904.254 399.52C903.748 399.733 903.294 400.013 902.894 400.36C902.521 400.68 902.201 401.04 901.934 401.44C901.668 401.813 901.454 402.173 901.294 402.52H900.934V399.6C901.148 399.573 901.348 399.507 901.534 399.4C901.721 399.293 901.948 399.187 902.214 399.08C902.614 398.92 903.161 398.693 903.854 398.4C904.548 398.08 905.521 397.92 906.774 397.92C908.241 397.92 909.428 398.107 910.334 398.48C911.241 398.853 911.934 399.347 912.414 399.96C912.921 400.573 913.254 401.28 913.414 402.08C913.574 402.853 913.654 403.653 913.654 404.48V412.4C913.654 412.933 913.774 413.44 914.014 413.92C914.254 414.373 914.574 414.6 914.974 414.6V415H911.094ZM911.094 411.2V405.48L910.694 405.56C910.054 405.72 909.268 405.933 908.334 406.2C907.428 406.467 906.561 406.813 905.734 407.24C904.908 407.667 904.201 408.173 903.614 408.76C903.028 409.347 902.734 410.027 902.734 410.8C902.734 411.653 903.081 412.36 903.774 412.92C904.468 413.48 905.374 413.76 906.494 413.76C907.374 413.76 908.148 413.573 908.814 413.2C909.481 412.8 910.094 412.293 910.654 411.68L911.094 411.2ZM927.136 422.44C927.936 422.44 928.696 422.36 929.416 422.2C930.136 422.067 930.762 421.867 931.296 421.6C931.856 421.333 932.296 421.013 932.616 420.64C932.936 420.267 933.096 419.867 933.096 419.44C933.096 418.987 932.869 418.6 932.416 418.28C931.989 417.96 931.402 417.68 930.656 417.44C929.909 417.2 929.042 416.987 928.056 416.8C927.069 416.64 926.042 416.467 924.976 416.28L922.936 415.92C922.322 416.4 921.896 416.907 921.656 417.44C921.416 417.973 921.296 418.44 921.296 418.84C921.296 419.4 921.442 419.893 921.736 420.32C922.056 420.773 922.469 421.16 922.976 421.48C923.509 421.8 924.122 422.04 924.816 422.2C925.536 422.36 926.309 422.44 927.136 422.44ZM929.336 414.44C930.402 414.6 931.282 414.813 931.976 415.08C932.696 415.347 933.269 415.653 933.696 416C934.122 416.373 934.416 416.773 934.576 417.2C934.736 417.653 934.816 418.133 934.816 418.64C934.816 419.547 934.562 420.333 934.056 421C933.576 421.667 932.936 422.213 932.136 422.64C931.362 423.093 930.469 423.427 929.456 423.64C928.469 423.853 927.456 423.96 926.416 423.96C925.402 423.96 924.429 423.853 923.496 423.64C922.562 423.453 921.736 423.16 921.016 422.76C920.296 422.36 919.722 421.853 919.296 421.24C918.869 420.653 918.656 419.973 918.656 419.2C918.656 418.507 918.869 417.84 919.296 417.2C919.722 416.587 920.416 415.973 921.376 415.36C920.442 414.88 919.722 414.24 919.216 413.44C918.736 412.613 918.496 411.773 918.496 410.92C918.496 410.413 918.616 409.92 918.856 409.44C919.096 408.933 919.482 408.467 920.016 408.04C919.562 407.507 919.242 406.973 919.056 406.44C918.869 405.907 918.776 405.333 918.776 404.72C918.776 403.76 918.976 402.867 919.376 402.04C919.776 401.213 920.322 400.493 921.016 399.88C921.709 399.267 922.522 398.787 923.456 398.44C924.389 398.093 925.389 397.92 926.456 397.92C927.576 397.92 928.642 398.12 929.656 398.52C930.669 398.893 931.522 399.387 932.216 400H935.096V401.44H933.256C933.442 401.84 933.629 402.32 933.816 402.88C934.002 403.413 934.096 403.973 934.096 404.56C934.096 405.413 933.896 406.227 933.496 407C933.096 407.747 932.536 408.413 931.816 409C931.122 409.56 930.296 410.013 929.336 410.36C928.402 410.68 927.402 410.84 926.336 410.84C925.349 410.84 924.389 410.693 923.456 410.4C922.522 410.107 921.696 409.68 920.976 409.12C920.682 409.307 920.482 409.547 920.376 409.84C920.269 410.107 920.216 410.387 920.216 410.68C920.216 411.533 920.602 412.2 921.376 412.68C922.149 413.133 923.136 413.453 924.336 413.64L929.336 414.44ZM925.976 399.32C925.336 399.32 924.736 399.44 924.176 399.68C923.616 399.893 923.122 400.2 922.696 400.6C922.269 401 921.922 401.493 921.656 402.08C921.416 402.64 921.296 403.28 921.296 404C921.296 404.88 921.469 405.667 921.816 406.36C922.189 407.053 922.656 407.627 923.216 408.08C923.776 408.533 924.389 408.88 925.056 409.12C925.749 409.36 926.402 409.48 927.016 409.48C927.682 409.48 928.282 409.36 928.816 409.12C929.376 408.853 929.856 408.507 930.256 408.08C930.656 407.627 930.962 407.107 931.176 406.52C931.389 405.933 931.496 405.32 931.496 404.68C931.496 403.88 931.336 403.147 931.016 402.48C930.696 401.813 930.269 401.253 929.736 400.8C929.229 400.32 928.642 399.96 927.976 399.72C927.309 399.453 926.642 399.32 925.976 399.32ZM940.82 406.92C940.927 407.853 941.154 408.747 941.5 409.6C941.847 410.427 942.3 411.16 942.86 411.8C943.447 412.44 944.154 412.96 944.98 413.36C945.807 413.733 946.767 413.92 947.86 413.92C948.447 413.92 949.06 413.84 949.7 413.68C950.367 413.493 950.98 413.24 951.54 412.92C952.1 412.6 952.594 412.213 953.02 411.76C953.474 411.28 953.78 410.747 953.94 410.16H954.3V413.16C954.14 413.16 953.954 413.213 953.74 413.32C953.554 413.427 953.327 413.56 953.06 413.72C952.527 414.04 951.807 414.387 950.9 414.76C949.994 415.107 948.794 415.28 947.3 415.28C946.1 415.28 944.954 415.107 943.86 414.76C942.794 414.413 941.847 413.88 941.02 413.16C940.194 412.44 939.527 411.52 939.02 410.4C938.54 409.28 938.3 407.947 938.3 406.4C938.3 405.413 938.46 404.413 938.78 403.4C939.127 402.387 939.634 401.48 940.3 400.68C940.994 399.853 941.874 399.187 942.94 398.68C944.007 398.173 945.287 397.92 946.78 397.92C948.114 397.92 949.274 398.147 950.26 398.6C951.274 399.053 952.1 399.68 952.74 400.48C953.407 401.28 953.9 402.227 954.22 403.32C954.54 404.413 954.7 405.613 954.7 406.92H940.82ZM946.62 399.24C945.687 399.24 944.874 399.427 944.18 399.8C943.514 400.173 942.94 400.653 942.46 401.24C941.98 401.827 941.607 402.493 941.34 403.24C941.074 403.987 940.9 404.733 940.82 405.48H952.22C952.194 404.707 952.047 403.947 951.78 403.2C951.54 402.453 951.194 401.787 950.74 401.2C950.287 400.613 949.714 400.147 949.02 399.8C948.327 399.427 947.527 399.24 946.62 399.24ZM958.554 388.64H963.714V389.04C963.368 389.04 963.101 389.293 962.914 389.8C962.728 390.28 962.621 390.72 962.594 391.12L961.554 410.44H961.074L959.874 391.12C959.874 390.933 959.834 390.72 959.754 390.48C959.701 390.24 959.621 390.013 959.514 389.8C959.408 389.587 959.274 389.413 959.114 389.28C958.954 389.12 958.768 389.04 958.554 389.04V388.64ZM959.434 413.48C959.434 412.947 959.608 412.493 959.954 412.12C960.328 411.747 960.781 411.56 961.314 411.56C961.848 411.56 962.288 411.747 962.634 412.12C963.008 412.493 963.194 412.947 963.194 413.48C963.194 414.013 963.008 414.467 962.634 414.84C962.288 415.187 961.848 415.36 961.314 415.36C960.781 415.36 960.328 415.187 959.954 414.84C959.608 414.467 959.434 414.013 959.434 413.48Z" fill="black"/>
<circle cx="101" cy="143" r="90" fill="#58B066"/>
<circle cx="188" cy="194" r="39" fill="#58B066" fill-opacity="0.54"/>
<circle cx="350" cy="776" r="52" fill="#58B066" fill-opacity="0.69"/>
<circle cx="1117" cy="787" r="90" fill="#58B066" fill-opacity="0.83"/>
<circle cx="188.5" cy="761.5" r="140.5" fill="#58B066" fill-opacity="0.44"/>
<circle cx="1222" cy="81" r="81" fill="#58B066" fill-opacity="0.38"/>
<circle cx="1302.5" cy="216.5" r="122.5" fill="#58B066"/>
<circle cx="580.5" cy="-14.5" r="122.5" fill="#58B066"/>
<circle cx="1294" cy="877" r="153" fill="#329B43"/>
<circle cx="341.5" cy="876.5" r="77.5" fill="#58B066"/>
</g>
<defs>
<clipPath id="clip0_1_140">
<rect width="1318" height="850" fill="white"/>
</clipPath>
</defs>
</svg>
